<svg width="15" height="16" viewBox="0 0 15 16" fill="none" xmlns="http://www.w3.org/2000/svg">
<path d="M5.96989 12.3148C6.69702 12.3148 7.28647 11.7253 7.28647 10.9982C7.28647 10.2711 6.69702 9.68164 5.96989 9.68164C5.24277 9.68164 4.65332 10.2711 4.65332 10.9982C4.65332 11.7253 5.24277 12.3148 5.96989 12.3148Z" stroke="#0841D5" stroke-width="0.734832" stroke-miterlimit="10" stroke-linecap="round" stroke-linejoin="round"/>
<path d="M4.6533 10.998H2.79785" stroke="#0841D5" stroke-width="0.734832" stroke-miterlimit="10" stroke-linecap="round" stroke-linejoin="round"/>
<path d="M11.9846 10.998H8.7207" stroke="#0841D5" stroke-width="0.734832" stroke-miterlimit="10" stroke-linecap="round" stroke-linejoin="round"/>
<path d="M8.80486 6.80356C9.53198 6.80356 10.1214 6.21411 10.1214 5.48698C10.1214 4.75986 9.53198 4.17041 8.80486 4.17041C8.07773 4.17041 7.48828 4.75986 7.48828 5.48698C7.48828 6.21411 8.07773 6.80356 8.80486 6.80356Z" stroke="#0841D5" stroke-width="0.734832" stroke-miterlimit="10" stroke-linecap="round" stroke-linejoin="round"/>
<path d="M10.1279 5.48682H11.9834" stroke="#0841D5" stroke-width="0.734832" stroke-miterlimit="10" stroke-linecap="round" stroke-linejoin="round"/>
<path d="M2.79785 5.48682H6.06173" stroke="#0841D5" stroke-width="0.734832" stroke-miterlimit="10" stroke-linecap="round" stroke-linejoin="round"/>
</svg>
