<svg width="20" height="20" viewBox="0 0 20 20" fill="none" xmlns="http://www.w3.org/2000/svg">
<path d="M17.0132 9.02992C17.3761 9.5045 17.3761 10.1452 17.0132 10.619C15.8704 12.1109 13.1286 15.1826 9.92746 15.1826C6.72635 15.1826 3.9845 12.1109 2.84169 10.619C2.66516 10.3918 2.56934 10.1122 2.56934 9.82446C2.56934 9.53671 2.66516 9.25716 2.84169 9.02992C3.9845 7.53806 6.72635 4.46631 9.92746 4.46631C13.1286 4.46631 15.8704 7.53806 17.0132 9.02992V9.02992Z" stroke="#5E6E78" stroke-opacity="0.37" stroke-width="1.5309" stroke-linecap="round" stroke-linejoin="round"/>
<path d="M9.92819 12.1205C11.1964 12.1205 12.2245 11.0924 12.2245 9.82418C12.2245 8.55594 11.1964 7.52783 9.92819 7.52783C8.65995 7.52783 7.63184 8.55594 7.63184 9.82418C7.63184 11.0924 8.65995 12.1205 9.92819 12.1205Z" stroke="#5E6E78" stroke-opacity="0.37" stroke-width="1.5309" stroke-linecap="round" stroke-linejoin="round"/>
</svg>
