<svg width="14" height="13" viewBox="0 0 14 13" fill="none" xmlns="http://www.w3.org/2000/svg">
<path d="M11.6722 5.70061C11.9141 6.017 11.9141 6.44412 11.6722 6.75999C10.9104 7.75457 9.08246 9.8024 6.94839 9.8024C4.81431 9.8024 2.98641 7.75457 2.22454 6.75999C2.10685 6.6085 2.04297 6.42213 2.04297 6.2303C2.04297 6.03847 2.10685 5.8521 2.22454 5.70061C2.98641 4.70604 4.81431 2.6582 6.94839 2.6582C9.08246 2.6582 10.9104 4.70604 11.6722 5.70061V5.70061Z" stroke="#5E6E78" stroke-opacity="0.37" stroke-width="1.0206" stroke-linecap="round" stroke-linejoin="round"/>
<path d="M6.94887 7.76102C7.79436 7.76102 8.47977 7.07561 8.47977 6.23012C8.47977 5.38463 7.79436 4.69922 6.94887 4.69922C6.10338 4.69922 5.41797 5.38463 5.41797 6.23012C5.41797 7.07561 6.10338 7.76102 6.94887 7.76102Z" stroke="#5E6E78" stroke-opacity="0.37" stroke-width="1.0206" stroke-linecap="round" stroke-linejoin="round"/>
</svg>
