<svg width="19" height="19" viewBox="0 0 19 19" fill="none" xmlns="http://www.w3.org/2000/svg">
<path d="M9.94788 1.77869C8.0837 1.78073 6.29646 2.52218 4.97829 3.84035C3.66012 5.15852 2.91867 6.94576 2.91663 8.80994V14.7394C2.917 15.0315 3.0332 15.3115 3.23975 15.5181C3.44629 15.7246 3.72632 15.8408 4.01842 15.8412H9.94788C11.8127 15.8412 13.6011 15.1004 14.9197 13.7818C16.2383 12.4632 16.9791 10.6747 16.9791 8.80994C16.9791 6.94513 16.2383 5.15671 14.9197 3.83809C13.6011 2.51948 11.8127 1.77869 9.94788 1.77869ZM9.94788 14.7162H4.04163V8.80994C4.04163 7.64179 4.38802 6.49988 5.03701 5.5286C5.686 4.55732 6.60843 3.8003 7.68765 3.35327C8.76688 2.90624 9.95443 2.78928 11.1001 3.01717C12.2458 3.24507 13.2982 3.80758 14.1242 4.63359C14.9502 5.45959 15.5127 6.51198 15.7406 7.65768C15.9685 8.80338 15.8516 9.99093 15.4045 11.0702C14.9575 12.1494 14.2005 13.0718 13.2292 13.7208C12.2579 14.3698 11.116 14.7162 9.94788 14.7162ZM10.7916 9.09119C10.7916 9.25806 10.7421 9.42119 10.6494 9.55995C10.5567 9.6987 10.4249 9.80685 10.2708 9.87071C10.1166 9.93457 9.94694 9.95128 9.78327 9.91872C9.6196 9.88617 9.46926 9.80581 9.35125 9.68781C9.23325 9.56981 9.15289 9.41947 9.12034 9.25579C9.08778 9.09212 9.10449 8.92247 9.16835 8.7683C9.23221 8.61412 9.34036 8.48235 9.47911 8.38963C9.61787 8.29692 9.781 8.24744 9.94788 8.24744C10.1717 8.24744 10.3863 8.33633 10.5445 8.49457C10.7027 8.6528 10.7916 8.86741 10.7916 9.09119ZM7.69788 9.09119C7.69788 9.25806 7.64839 9.42119 7.55568 9.55995C7.46297 9.6987 7.33119 9.80685 7.17702 9.87071C7.02284 9.93457 6.85319 9.95128 6.68952 9.91872C6.52585 9.88617 6.37551 9.80581 6.2575 9.68781C6.1395 9.56981 6.05914 9.41947 6.02659 9.25579C5.99403 9.09212 6.01074 8.92247 6.0746 8.7683C6.13846 8.61412 6.24661 8.48235 6.38536 8.38963C6.52412 8.29692 6.68725 8.24744 6.85413 8.24744C7.0779 8.24744 7.29251 8.33633 7.45075 8.49457C7.60898 8.6528 7.69788 8.86741 7.69788 9.09119ZM13.8854 9.09119C13.8854 9.25806 13.8359 9.42119 13.7432 9.55995C13.6505 9.6987 13.5187 9.80685 13.3645 9.87071C13.2103 9.93457 13.0407 9.95128 12.877 9.91872C12.7133 9.88617 12.563 9.80581 12.445 9.68781C12.327 9.56981 12.2466 9.41947 12.2141 9.25579C12.1815 9.09212 12.1982 8.92247 12.2621 8.7683C12.326 8.61412 12.4341 8.48235 12.5729 8.38963C12.7116 8.29692 12.8747 8.24744 13.0416 8.24744C13.2654 8.24744 13.48 8.33633 13.6382 8.49457C13.7965 8.6528 13.8854 8.86741 13.8854 9.09119Z" fill="#B8B9BD"/>
</svg>
