<svg width="18" height="19" viewBox="0 0 18 19" fill="none" xmlns="http://www.w3.org/2000/svg">
<path d="M9.28125 1.77869C7.41707 1.78073 5.62984 2.52218 4.31167 3.84035C2.99349 5.15852 2.25205 6.94576 2.25 8.80994V14.7394C2.25037 15.0315 2.36657 15.3115 2.57312 15.5181C2.77967 15.7246 3.0597 15.8408 3.3518 15.8412H9.28125C11.1461 15.8412 12.9345 15.1004 14.2531 13.7818C15.5717 12.4632 16.3125 10.6747 16.3125 8.80994C16.3125 6.94513 15.5717 5.15671 14.2531 3.83809C12.9345 2.51948 11.1461 1.77869 9.28125 1.77869ZM9.28125 14.7162H3.375V8.80994C3.375 7.64179 3.7214 6.49988 4.37038 5.5286C5.01937 4.55732 5.9418 3.8003 7.02103 3.35327C8.10025 2.90624 9.2878 2.78928 10.4335 3.01717C11.5792 3.24507 12.6316 3.80758 13.4576 4.63359C14.2836 5.45959 14.8461 6.51198 15.074 7.65768C15.3019 8.80338 15.1849 9.99093 14.7379 11.0702C14.2909 12.1494 13.5339 13.0718 12.5626 13.7208C11.5913 14.3698 10.4494 14.7162 9.28125 14.7162ZM10.125 9.09119C10.125 9.25806 10.0755 9.42119 9.9828 9.55995C9.89009 9.6987 9.75831 9.80685 9.60414 9.87071C9.44996 9.93457 9.28031 9.95128 9.11664 9.91872C8.95297 9.88617 8.80263 9.80581 8.68463 9.68781C8.56663 9.56981 8.48627 9.41947 8.45371 9.25579C8.42116 9.09212 8.43787 8.92247 8.50173 8.7683C8.56559 8.61412 8.67373 8.48235 8.81249 8.38963C8.95124 8.29692 9.11437 8.24744 9.28125 8.24744C9.50503 8.24744 9.71964 8.33633 9.87787 8.49457C10.0361 8.6528 10.125 8.86741 10.125 9.09119ZM7.03125 9.09119C7.03125 9.25806 6.98177 9.42119 6.88905 9.55995C6.79634 9.6987 6.66456 9.80685 6.51039 9.87071C6.35621 9.93457 6.18656 9.95128 6.02289 9.91872C5.85922 9.88617 5.70888 9.80581 5.59088 9.68781C5.47288 9.56981 5.39252 9.41947 5.35996 9.25579C5.32741 9.09212 5.34412 8.92247 5.40798 8.7683C5.47184 8.61412 5.57998 8.48235 5.71874 8.38963C5.85749 8.29692 6.02062 8.24744 6.1875 8.24744C6.41128 8.24744 6.62589 8.33633 6.78412 8.49457C6.94236 8.6528 7.03125 8.86741 7.03125 9.09119ZM13.2188 9.09119C13.2188 9.25806 13.1693 9.42119 13.0766 9.55995C12.9838 9.6987 12.8521 9.80685 12.6979 9.87071C12.5437 9.93457 12.3741 9.95128 12.2104 9.91872C12.0467 9.88617 11.8964 9.80581 11.7784 9.68781C11.6604 9.56981 11.58 9.41947 11.5475 9.25579C11.5149 9.09212 11.5316 8.92247 11.5955 8.7683C11.6593 8.61412 11.7675 8.48235 11.9062 8.38963C12.045 8.29692 12.2081 8.24744 12.375 8.24744C12.5988 8.24744 12.8134 8.33633 12.9716 8.49457C13.1299 8.6528 13.2188 8.86741 13.2188 9.09119Z" fill="#B8B9BD"/>
</svg>
