<svg width="18" height="19" viewBox="0 0 18 19" fill="none" xmlns="http://www.w3.org/2000/svg">
<path d="M9.28125 2.45874C7.41707 2.46079 5.62984 3.20224 4.31167 4.52041C2.99349 5.83858 2.25205 7.62582 2.25 9.48999V15.4194C2.25037 15.7115 2.36657 15.9916 2.57312 16.1981C2.77967 16.4047 3.0597 16.5209 3.3518 16.5212H9.28125C11.1461 16.5212 12.9345 15.7804 14.2531 14.4618C15.5717 13.1432 16.3125 11.3548 16.3125 9.48999C16.3125 7.62519 15.5717 5.83676 14.2531 4.51815C12.9345 3.19953 11.1461 2.45874 9.28125 2.45874ZM9.28125 15.3962H3.375V9.48999C3.375 8.32184 3.7214 7.17993 4.37038 6.20865C5.01937 5.23738 5.9418 4.48036 7.02103 4.03333C8.10025 3.5863 9.2878 3.46933 10.4335 3.69723C11.5792 3.92512 12.6316 4.48764 13.4576 5.31364C14.2836 6.13964 14.8461 7.19204 15.074 8.33774C15.3019 9.48344 15.1849 10.671 14.7379 11.7502C14.2909 12.8294 13.5339 13.7519 12.5626 14.4009C11.5913 15.0498 10.4494 15.3962 9.28125 15.3962ZM10.125 9.77124C10.125 9.93812 10.0755 10.1012 9.9828 10.24C9.89009 10.3788 9.75831 10.4869 9.60414 10.5508C9.44996 10.6146 9.28031 10.6313 9.11664 10.5988C8.95297 10.5662 8.80263 10.4859 8.68463 10.3679C8.56663 10.2499 8.48627 10.0995 8.45371 9.93585C8.42116 9.77218 8.43787 9.60253 8.50173 9.44835C8.56559 9.29418 8.67373 9.1624 8.81249 9.06969C8.95124 8.97698 9.11437 8.92749 9.28125 8.92749C9.50503 8.92749 9.71964 9.01638 9.87787 9.17462C10.0361 9.33285 10.125 9.54746 10.125 9.77124ZM7.03125 9.77124C7.03125 9.93812 6.98177 10.1012 6.88905 10.24C6.79634 10.3788 6.66456 10.4869 6.51039 10.5508C6.35621 10.6146 6.18656 10.6313 6.02289 10.5988C5.85922 10.5662 5.70888 10.4859 5.59088 10.3679C5.47288 10.2499 5.39252 10.0995 5.35996 9.93585C5.32741 9.77218 5.34412 9.60253 5.40798 9.44835C5.47184 9.29418 5.57998 9.1624 5.71874 9.06969C5.85749 8.97698 6.02062 8.92749 6.1875 8.92749C6.41128 8.92749 6.62589 9.01638 6.78412 9.17462C6.94236 9.33285 7.03125 9.54746 7.03125 9.77124ZM13.2188 9.77124C13.2188 9.93812 13.1693 10.1012 13.0766 10.24C12.9838 10.3788 12.8521 10.4869 12.6979 10.5508C12.5437 10.6146 12.3741 10.6313 12.2104 10.5988C12.0467 10.5662 11.8964 10.4859 11.7784 10.3679C11.6604 10.2499 11.58 10.0995 11.5475 9.93585C11.5149 9.77218 11.5316 9.60253 11.5955 9.44835C11.6593 9.29418 11.7675 9.1624 11.9062 9.06969C12.045 8.97698 12.2081 8.92749 12.375 8.92749C12.5988 8.92749 12.8134 9.01638 12.9716 9.17462C13.1299 9.33285 13.2188 9.54746 13.2188 9.77124Z" fill="#B8B9BD"/>
</svg>
