<svg width="19" height="19" viewBox="0 0 19 19" fill="none" xmlns="http://www.w3.org/2000/svg">
<path d="M9.61462 1.77869C7.75045 1.78073 5.96321 2.52218 4.64504 3.84035C3.32687 5.15852 2.58542 6.94576 2.58337 8.80994V14.7394C2.58375 15.0315 2.69995 15.3115 2.90649 15.5181C3.11304 15.7246 3.39307 15.8408 3.68517 15.8412H9.61462C11.4794 15.8412 13.2679 15.1004 14.5865 13.7818C15.9051 12.4632 16.6459 10.6747 16.6459 8.80994C16.6459 6.94513 15.9051 5.15671 14.5865 3.83809C13.2679 2.51948 11.4794 1.77869 9.61462 1.77869ZM9.61462 14.7162H3.70837V8.80994C3.70837 7.64179 4.05477 6.49988 4.70376 5.5286C5.35274 4.55732 6.27517 3.8003 7.3544 3.35327C8.43363 2.90624 9.62118 2.78928 10.7669 3.01717C11.9126 3.24507 12.965 3.80758 13.791 4.63359C14.617 5.45959 15.1795 6.51198 15.4074 7.65768C15.6353 8.80338 15.5183 9.99093 15.0713 11.0702C14.6243 12.1494 13.8672 13.0718 12.896 13.7208C11.9247 14.3698 10.7828 14.7162 9.61462 14.7162ZM10.4584 9.09119C10.4584 9.25806 10.4089 9.42119 10.3162 9.55995C10.2235 9.6987 10.0917 9.80685 9.93751 9.87071C9.78334 9.93457 9.61369 9.95128 9.45002 9.91872C9.28635 9.88617 9.136 9.80581 9.018 9.68781C8.9 9.56981 8.81964 9.41947 8.78709 9.25579C8.75453 9.09212 8.77124 8.92247 8.8351 8.7683C8.89896 8.61412 9.00711 8.48235 9.14586 8.38963C9.28462 8.29692 9.44775 8.24744 9.61462 8.24744C9.8384 8.24744 10.053 8.33633 10.2112 8.49457C10.3695 8.6528 10.4584 8.86741 10.4584 9.09119ZM7.36462 9.09119C7.36462 9.25806 7.31514 9.42119 7.22243 9.55995C7.12971 9.6987 6.99794 9.80685 6.84376 9.87071C6.68959 9.93457 6.51994 9.95128 6.35627 9.91872C6.19259 9.88617 6.04225 9.80581 5.92425 9.68781C5.80625 9.56981 5.72589 9.41947 5.69334 9.25579C5.66078 9.09212 5.67749 8.92247 5.74135 8.7683C5.80521 8.61412 5.91336 8.48235 6.05211 8.38963C6.19087 8.29692 6.354 8.24744 6.52087 8.24744C6.74465 8.24744 6.95926 8.33633 7.1175 8.49457C7.27573 8.6528 7.36462 8.86741 7.36462 9.09119ZM13.5521 9.09119C13.5521 9.25806 13.5026 9.42119 13.4099 9.55995C13.3172 9.6987 13.1854 9.80685 13.0313 9.87071C12.8771 9.93457 12.7074 9.95128 12.5438 9.91872C12.3801 9.88617 12.2298 9.80581 12.1118 9.68781C11.9938 9.56981 11.9134 9.41947 11.8808 9.25579C11.8483 9.09212 11.865 8.92247 11.9289 8.7683C11.9927 8.61412 12.1009 8.48235 12.2396 8.38963C12.3784 8.29692 12.5415 8.24744 12.7084 8.24744C12.9322 8.24744 13.1468 8.33633 13.305 8.49457C13.4632 8.6528 13.5521 8.86741 13.5521 9.09119Z" fill="#B8B9BD"/>
</svg>
