<svg width="19" height="19" viewBox="0 0 19 19" fill="none" xmlns="http://www.w3.org/2000/svg">
<path d="M9.94788 2.45874C8.0837 2.46079 6.29646 3.20224 4.97829 4.52041C3.66012 5.83858 2.91867 7.62582 2.91663 9.48999V15.4194C2.917 15.7115 3.0332 15.9916 3.23975 16.1981C3.44629 16.4047 3.72632 16.5209 4.01842 16.5212H9.94788C11.8127 16.5212 13.6011 15.7804 14.9197 14.4618C16.2383 13.1432 16.9791 11.3548 16.9791 9.48999C16.9791 7.62519 16.2383 5.83676 14.9197 4.51815C13.6011 3.19953 11.8127 2.45874 9.94788 2.45874ZM9.94788 15.3962H4.04163V9.48999C4.04163 8.32184 4.38802 7.17993 5.03701 6.20865C5.686 5.23738 6.60843 4.48036 7.68765 4.03333C8.76688 3.5863 9.95443 3.46933 11.1001 3.69723C12.2458 3.92512 13.2982 4.48764 14.1242 5.31364C14.9502 6.13964 15.5127 7.19204 15.7406 8.33774C15.9685 9.48344 15.8516 10.671 15.4045 11.7502C14.9575 12.8294 14.2005 13.7519 13.2292 14.4009C12.2579 15.0498 11.116 15.3962 9.94788 15.3962ZM10.7916 9.77124C10.7916 9.93812 10.7421 10.1012 10.6494 10.24C10.5567 10.3788 10.4249 10.4869 10.2708 10.5508C10.1166 10.6146 9.94694 10.6313 9.78327 10.5988C9.6196 10.5662 9.46926 10.4859 9.35125 10.3679C9.23325 10.2499 9.15289 10.0995 9.12034 9.93585C9.08778 9.77218 9.10449 9.60253 9.16835 9.44835C9.23221 9.29418 9.34036 9.1624 9.47911 9.06969C9.61787 8.97698 9.781 8.92749 9.94788 8.92749C10.1717 8.92749 10.3863 9.01638 10.5445 9.17462C10.7027 9.33285 10.7916 9.54746 10.7916 9.77124ZM7.69788 9.77124C7.69788 9.93812 7.64839 10.1012 7.55568 10.24C7.46297 10.3788 7.33119 10.4869 7.17702 10.5508C7.02284 10.6146 6.85319 10.6313 6.68952 10.5988C6.52585 10.5662 6.37551 10.4859 6.2575 10.3679C6.1395 10.2499 6.05914 10.0995 6.02659 9.93585C5.99403 9.77218 6.01074 9.60253 6.0746 9.44835C6.13846 9.29418 6.24661 9.1624 6.38536 9.06969C6.52412 8.97698 6.68725 8.92749 6.85413 8.92749C7.0779 8.92749 7.29251 9.01638 7.45075 9.17462C7.60898 9.33285 7.69788 9.54746 7.69788 9.77124ZM13.8854 9.77124C13.8854 9.93812 13.8359 10.1012 13.7432 10.24C13.6505 10.3788 13.5187 10.4869 13.3645 10.5508C13.2103 10.6146 13.0407 10.6313 12.877 10.5988C12.7133 10.5662 12.563 10.4859 12.445 10.3679C12.327 10.2499 12.2466 10.0995 12.2141 9.93585C12.1815 9.77218 12.1982 9.60253 12.2621 9.44835C12.326 9.29418 12.4341 9.1624 12.5729 9.06969C12.7116 8.97698 12.8747 8.92749 13.0416 8.92749C13.2654 8.92749 13.48 9.01638 13.6382 9.17462C13.7965 9.33285 13.8854 9.54746 13.8854 9.77124Z" fill="#B8B9BD"/>
</svg>
