<svg width="19" height="19" viewBox="0 0 19 19" fill="none" xmlns="http://www.w3.org/2000/svg">
<path d="M9.61462 2.45874C7.75045 2.46079 5.96321 3.20224 4.64504 4.52041C3.32687 5.83858 2.58542 7.62582 2.58337 9.48999V15.4194C2.58375 15.7115 2.69995 15.9916 2.90649 16.1981C3.11304 16.4047 3.39307 16.5209 3.68517 16.5212H9.61462C11.4794 16.5212 13.2679 15.7804 14.5865 14.4618C15.9051 13.1432 16.6459 11.3548 16.6459 9.48999C16.6459 7.62519 15.9051 5.83676 14.5865 4.51815C13.2679 3.19953 11.4794 2.45874 9.61462 2.45874ZM9.61462 15.3962H3.70837V9.48999C3.70837 8.32184 4.05477 7.17993 4.70376 6.20865C5.35274 5.23738 6.27517 4.48036 7.3544 4.03333C8.43363 3.5863 9.62118 3.46933 10.7669 3.69723C11.9126 3.92512 12.965 4.48764 13.791 5.31364C14.617 6.13964 15.1795 7.19204 15.4074 8.33774C15.6353 9.48344 15.5183 10.671 15.0713 11.7502C14.6243 12.8294 13.8672 13.7519 12.896 14.4009C11.9247 15.0498 10.7828 15.3962 9.61462 15.3962ZM10.4584 9.77124C10.4584 9.93812 10.4089 10.1012 10.3162 10.24C10.2235 10.3788 10.0917 10.4869 9.93751 10.5508C9.78334 10.6146 9.61369 10.6313 9.45002 10.5988C9.28635 10.5662 9.136 10.4859 9.018 10.3679C8.9 10.2499 8.81964 10.0995 8.78709 9.93585C8.75453 9.77218 8.77124 9.60253 8.8351 9.44835C8.89896 9.29418 9.00711 9.1624 9.14586 9.06969C9.28462 8.97698 9.44775 8.92749 9.61462 8.92749C9.8384 8.92749 10.053 9.01638 10.2112 9.17462C10.3695 9.33285 10.4584 9.54746 10.4584 9.77124ZM7.36462 9.77124C7.36462 9.93812 7.31514 10.1012 7.22243 10.24C7.12971 10.3788 6.99794 10.4869 6.84376 10.5508C6.68959 10.6146 6.51994 10.6313 6.35627 10.5988C6.19259 10.5662 6.04225 10.4859 5.92425 10.3679C5.80625 10.2499 5.72589 10.0995 5.69334 9.93585C5.66078 9.77218 5.67749 9.60253 5.74135 9.44835C5.80521 9.29418 5.91336 9.1624 6.05211 9.06969C6.19087 8.97698 6.354 8.92749 6.52087 8.92749C6.74465 8.92749 6.95926 9.01638 7.1175 9.17462C7.27573 9.33285 7.36462 9.54746 7.36462 9.77124ZM13.5521 9.77124C13.5521 9.93812 13.5026 10.1012 13.4099 10.24C13.3172 10.3788 13.1854 10.4869 13.0313 10.5508C12.8771 10.6146 12.7074 10.6313 12.5438 10.5988C12.3801 10.5662 12.2298 10.4859 12.1118 10.3679C11.9938 10.2499 11.9134 10.0995 11.8808 9.93585C11.8483 9.77218 11.865 9.60253 11.9289 9.44835C11.9927 9.29418 12.1009 9.1624 12.2396 9.06969C12.3784 8.97698 12.5415 8.92749 12.7084 8.92749C12.9322 8.92749 13.1468 9.01638 13.305 9.17462C13.4632 9.33285 13.5521 9.54746 13.5521 9.77124Z" fill="#B8B9BD"/>
</svg>
