<svg width="8" height="9" viewBox="0 0 8 9" fill="none" xmlns="http://www.w3.org/2000/svg">
<g clip-path="url(#clip0_11_9022)">
<path d="M4.42976 0.446583V0.450628C4.4338 0.470854 4.4338 0.495124 4.4338 0.519394V3.43588C4.42976 3.45206 4.41762 3.4561 4.40549 3.46419C4.32054 3.50465 4.23964 3.54105 4.1547 3.57746C4.03739 3.63004 3.91604 3.68667 3.79873 3.73926L3.374 3.93342C3.25669 3.98601 3.13939 4.03859 3.02612 4.09118C2.88859 4.1559 2.74702 4.21657 2.60948 4.2813C2.49218 4.33388 2.37487 4.39051 2.25352 4.4431C2.15644 4.48759 2.05936 4.52804 1.96632 4.57254C1.95823 4.57658 1.95014 4.58063 1.94205 4.58063C1.93801 4.58063 1.93801 4.58063 1.93396 4.57658L2.04318 4.39456C2.25352 4.04668 2.45982 3.70285 2.67016 3.35498C2.89264 2.98283 3.11916 2.61069 3.34164 2.23854C3.54794 1.89471 3.75828 1.55088 3.96458 1.20705C4.11424 0.95626 4.26796 0.705467 4.41762 0.454674C4.42167 0.446583 4.42571 0.442538 4.42571 0.434448H4.42976C4.42571 0.438493 4.42976 0.442538 4.42976 0.446583Z" fill="#8A92B2"/>
<path d="M6.91326 4.57665L6.91731 4.58069L6.32268 4.93261L4.45387 6.03691C4.44578 6.04096 4.43769 6.045 4.43364 6.04905C4.42151 6.04905 4.42151 6.03691 4.42151 6.03287V5.99646V3.49662C4.42151 3.48448 4.42151 3.4683 4.42555 3.45617C4.4296 3.43999 4.44173 3.44403 4.45387 3.44808C4.50645 3.47235 4.56309 3.49662 4.61567 3.52089C4.77343 3.5937 4.93119 3.66651 5.08894 3.73527C5.22647 3.79595 5.35996 3.86067 5.49749 3.92135C5.63503 3.98202 5.77256 4.04674 5.91009 4.10742C6.0274 4.16001 6.14875 4.21664 6.26605 4.26922C6.38336 4.32181 6.50471 4.37844 6.62202 4.43102C6.71506 4.47147 6.80809 4.51597 6.90113 4.55642C6.90113 4.56856 6.90517 4.5726 6.91326 4.57665Z" fill="#454A75"/>
<path d="M4.42976 8.56098C4.42976 8.56503 4.42571 8.56907 4.42571 8.57312H4.42167C4.42167 8.56503 4.41358 8.56098 4.40953 8.55289C4.15874 8.20097 3.90795 7.84501 3.65715 7.49309C3.40232 7.13308 3.14343 6.76903 2.88859 6.40902C2.64184 6.06114 2.39105 5.70922 2.1443 5.36135C2.07958 5.26831 2.01486 5.17932 1.95014 5.08628C1.9461 5.07819 1.94205 5.07415 1.93396 5.06201C1.9461 5.06201 1.95419 5.0701 1.95823 5.07415C2.31015 5.28044 2.65802 5.48674 3.00994 5.69304C3.41445 5.9317 3.81491 6.17036 4.21942 6.40902L4.42571 6.53037C4.4338 6.53846 4.4338 6.54655 4.4338 6.55464V8.50435C4.4338 8.52458 4.4338 8.5448 4.42976 8.56098Z" fill="#8A92B2"/>
<path d="M1.92944 4.58468V4.58063C2.05889 4.524 2.18428 4.46332 2.31372 4.40669C2.47957 4.32984 2.64542 4.25703 2.81127 4.18017C2.93666 4.12354 3.0661 4.06286 3.1915 4.00623C3.37757 3.92129 3.5596 3.84039 3.74567 3.75544C3.87107 3.69881 3.99647 3.64218 4.12591 3.5815C4.2149 3.54105 4.30794 3.5006 4.39693 3.46015C4.40502 3.4561 4.41715 3.45206 4.4212 3.44397C4.42524 3.44397 4.42524 3.44801 4.4212 3.45206V6.02067C4.4212 6.0328 4.41715 6.04494 4.42524 6.05303C4.41715 6.06517 4.40906 6.05303 4.40502 6.04898C4.36861 6.02876 4.33221 6.00853 4.2958 5.98426C3.51511 5.52313 2.73036 5.05795 1.94967 4.59681C1.94562 4.59277 1.93753 4.58872 1.92944 4.58468Z" fill="#62688F"/>
<path d="M6.90479 5.06201H6.90883C6.90883 5.0701 6.90074 5.07819 6.8967 5.08628C6.15241 6.13395 5.40812 7.18567 4.66383 8.23334C4.58697 8.34255 4.50607 8.45177 4.42922 8.56098C4.42517 8.55694 4.42517 8.55289 4.42517 8.54885V8.52458V6.56273V6.52632C4.59506 6.4252 4.76091 6.32811 4.9308 6.22699C5.5861 5.83866 6.2414 5.45438 6.89265 5.06606C6.8967 5.0701 6.90074 5.06606 6.90479 5.06201Z" fill="#62688F"/>
<path d="M4.4252 3.45211V3.44402V3.41975V0.483044C4.4252 0.470909 4.42116 0.462819 4.42925 0.450684C5.2504 1.81387 6.07154 3.17301 6.88864 4.53619C6.89673 4.54832 6.90887 4.5645 6.91291 4.58068C6.85628 4.56046 6.8037 4.53214 6.75111 4.50787C6.68639 4.47956 6.61762 4.4472 6.5529 4.41888C6.51245 4.39866 6.46796 4.38248 6.42751 4.36225C6.35874 4.32989 6.28998 4.30158 6.22121 4.26922C6.18076 4.25304 6.14031 4.23281 6.09986 4.21258L5.83288 4.09123C5.78839 4.07101 5.74389 4.05078 5.69535 4.03056L5.50119 3.94561C5.46074 3.92943 5.42029 3.90921 5.37984 3.88898L5.11286 3.76763C5.06837 3.7474 5.02387 3.72718 4.97533 3.70695L4.78117 3.62201C4.73667 3.60178 4.69622 3.58156 4.65173 3.56133C4.57487 3.52493 4.49802 3.48852 4.41711 3.45616C4.42925 3.45211 4.4252 3.45211 4.4252 3.45211Z" fill="#62688F"/>
</g>
<defs>
<clipPath id="clip0_11_9022">
<rect width="6.84289" height="8.21146" fill="white" transform="translate(0.767578 0.402222)"/>
</clipPath>
</defs>
</svg>
