<svg width="8" height="9" viewBox="0 0 8 9" fill="none" xmlns="http://www.w3.org/2000/svg">
<g clip-path="url(#clip0_11_9042)">
<path d="M4.09651 0.446583V0.450628C4.10055 0.470854 4.10055 0.495124 4.10055 0.519394V3.43588C4.09651 3.45206 4.08437 3.4561 4.07224 3.46419C3.98729 3.50465 3.90639 3.54105 3.82144 3.57746C3.70414 3.63004 3.58279 3.68667 3.46548 3.73926L3.04075 3.93342C2.92344 3.98601 2.80613 4.03859 2.69287 4.09118C2.55534 4.1559 2.41376 4.21657 2.27623 4.2813C2.15893 4.33388 2.04162 4.39051 1.92027 4.4431C1.82319 4.48759 1.7261 4.52804 1.63307 4.57254C1.62498 4.57658 1.61689 4.58063 1.6088 4.58063C1.60475 4.58063 1.60475 4.58063 1.60071 4.57658L1.70992 4.39456C1.92027 4.04668 2.12657 3.70285 2.33691 3.35498C2.55939 2.98283 2.78591 2.61069 3.00839 2.23854C3.21469 1.89471 3.42503 1.55088 3.63133 1.20705C3.78099 0.95626 3.9347 0.705467 4.08437 0.454674C4.08842 0.446583 4.09246 0.442538 4.09246 0.434448H4.09651C4.09246 0.438493 4.09651 0.442538 4.09651 0.446583Z" fill="#8A92B2"/>
<path d="M6.58001 4.57665L6.58406 4.58069L5.98943 4.93261L4.12062 6.03691C4.11253 6.04096 4.10444 6.045 4.10039 6.04905C4.08826 6.04905 4.08826 6.03691 4.08826 6.03287V5.99646V3.49662C4.08826 3.48448 4.08826 3.4683 4.0923 3.45617C4.09635 3.43999 4.10848 3.44403 4.12062 3.44808C4.1732 3.47235 4.22983 3.49662 4.28242 3.52089C4.44018 3.5937 4.59793 3.66651 4.75569 3.73527C4.89322 3.79595 5.02671 3.86067 5.16424 3.92135C5.30177 3.98202 5.43931 4.04674 5.57684 4.10742C5.69414 4.16001 5.8155 4.21664 5.9328 4.26922C6.05011 4.32181 6.17146 4.37844 6.28877 4.43102C6.3818 4.47147 6.47484 4.51597 6.56788 4.55642C6.56788 4.56856 6.57192 4.5726 6.58001 4.57665Z" fill="#454A75"/>
<path d="M4.09651 8.56098C4.09651 8.56503 4.09246 8.56907 4.09246 8.57312H4.08842C4.08842 8.56503 4.08033 8.56098 4.07628 8.55289C3.82549 8.20097 3.5747 7.84501 3.3239 7.49309C3.06906 7.13308 2.81018 6.76903 2.55534 6.40902C2.30859 6.06114 2.0578 5.70922 1.81105 5.36135C1.74633 5.26831 1.68161 5.17932 1.61689 5.08628C1.61284 5.07819 1.6088 5.07415 1.60071 5.06201C1.61284 5.06201 1.62093 5.0701 1.62498 5.07415C1.9769 5.28044 2.32477 5.48674 2.67669 5.69304C3.0812 5.9317 3.48166 6.17036 3.88616 6.40902L4.09246 6.53037C4.10055 6.53846 4.10055 6.54655 4.10055 6.55464V8.50435C4.10055 8.52458 4.10055 8.5448 4.09651 8.56098Z" fill="#8A92B2"/>
<path d="M1.59619 4.58468V4.58063C1.72563 4.524 1.85103 4.46332 1.98047 4.40669C2.14632 4.32984 2.31217 4.25703 2.47801 4.18017C2.60341 4.12354 2.73285 4.06286 2.85825 4.00623C3.04432 3.92129 3.22635 3.84039 3.41242 3.75544C3.53782 3.69881 3.66321 3.64218 3.79266 3.5815C3.88165 3.54105 3.97468 3.5006 4.06368 3.46015C4.07177 3.4561 4.0839 3.45206 4.08795 3.44397C4.09199 3.44397 4.09199 3.44801 4.08795 3.45206V6.02067C4.08795 6.0328 4.0839 6.04494 4.09199 6.05303C4.0839 6.06517 4.07581 6.05303 4.07177 6.04898C4.03536 6.02876 3.99895 6.00853 3.96255 5.98426C3.18185 5.52313 2.39711 5.05795 1.61642 4.59681C1.61237 4.59277 1.60428 4.58872 1.59619 4.58468Z" fill="#62688F"/>
<path d="M6.57154 5.06201H6.57558C6.57558 5.0701 6.56749 5.07819 6.56345 5.08628C5.81916 6.13395 5.07487 7.18567 4.33058 8.23334C4.25372 8.34255 4.17282 8.45177 4.09596 8.56098C4.09192 8.55694 4.09192 8.55289 4.09192 8.54885V8.52458V6.56273V6.52632C4.26181 6.4252 4.42766 6.32811 4.59755 6.22699C5.25285 5.83866 5.90815 5.45438 6.5594 5.06606C6.56345 5.0701 6.56749 5.06606 6.57154 5.06201Z" fill="#62688F"/>
<path d="M4.09195 3.45211V3.44402V3.41975V0.483044C4.09195 0.470909 4.08791 0.462819 4.096 0.450684C4.91714 1.81387 5.73829 3.17301 6.55539 4.53619C6.56348 4.54832 6.57562 4.5645 6.57966 4.58068C6.52303 4.56046 6.47045 4.53214 6.41786 4.50787C6.35314 4.47956 6.28437 4.4472 6.21965 4.41888C6.1792 4.39866 6.13471 4.38248 6.09426 4.36225C6.02549 4.32989 5.95672 4.30158 5.88796 4.26922C5.84751 4.25304 5.80706 4.23281 5.76661 4.21258L5.49963 4.09123C5.45514 4.07101 5.41064 4.05078 5.3621 4.03056L5.16794 3.94561C5.12749 3.92943 5.08704 3.90921 5.04659 3.88898L4.77961 3.76763C4.73512 3.7474 4.69062 3.72718 4.64208 3.70695L4.44792 3.62201C4.40342 3.60178 4.36297 3.58156 4.31848 3.56133C4.24162 3.52493 4.16476 3.48852 4.08386 3.45616C4.096 3.45211 4.09195 3.45211 4.09195 3.45211Z" fill="#62688F"/>
</g>
<defs>
<clipPath id="clip0_11_9042">
<rect width="6.84289" height="8.21146" fill="white" transform="translate(0.434326 0.402222)"/>
</clipPath>
</defs>
</svg>
