<svg width="6" height="10" viewBox="0 0 6 10" fill="none" xmlns="http://www.w3.org/2000/svg">
<g clip-path="url(#clip0_424_4447)">
<path d="M0.0751399 9.37457C0.186005 9.48543 0.365753 9.48543 0.476618 9.37457L2.28327 7.56792C2.39413 7.45705 2.39413 7.2773 2.28327 7.16644C2.1724 7.05557 1.99266 7.05557 1.88179 7.16644L0.275879 8.77235L-1.33003 7.16644C-1.4409 7.05557 -1.62065 7.05557 -1.73151 7.16644C-1.84238 7.2773 -1.84238 7.45705 -1.73151 7.56792L0.0751399 9.37457ZM0.559767 9.17383L0.559767 0.83125L-0.00800852 0.83125L-0.00800884 9.17383L0.559767 9.17383Z" fill="#FDFDFD"/>
<path d="M5.35601 0.630511C5.24515 0.519646 5.0654 0.519646 4.95453 0.630511L3.14788 2.43716C3.03702 2.54803 3.03702 2.72777 3.14788 2.83864C3.25875 2.9495 3.4385 2.9495 3.54936 2.83864L5.15527 1.23273L6.76119 2.83864C6.87205 2.9495 7.0518 2.9495 7.16266 2.83864C7.27353 2.72777 7.27353 2.54803 7.16266 2.43716L5.35601 0.630511ZM5.43916 9.17383L5.43916 0.83125L4.87139 0.83125L4.87139 9.17383L5.43916 9.17383Z" fill="#FDFDFD"/>
</g>
<defs>
<clipPath id="clip0_424_4447">
<rect width="4.87925" height="8.34258" fill="white" transform="translate(0.275879 0.830078)"/>
</clipPath>
</defs>
</svg>
