<svg width="14" height="16" viewBox="0 0 14 16" fill="none" xmlns="http://www.w3.org/2000/svg">
<mask id="mask0_339_152295" style="mask-type:alpha" maskUnits="userSpaceOnUse" x="0" y="0" width="14" height="16">
<rect x="0.0351562" y="0.73877" width="13.3839" height="14.9788" fill="#C4C4C4"/>
</mask>
<g mask="url(#mask0_339_152295)">
<path fill-rule="evenodd" clip-rule="evenodd" d="M10.5143 8.61256L6.78041 10.8193L3.04648 8.61256L6.78041 2.41699L10.5143 8.61256ZM-5.06459 20.763C-5.00189 20.763 -4.94929 20.7104 -4.94929 20.6477C-4.94929 19.9276 -5.4934 19.2581 -6.24383 19.2601C-6.99426 19.2601 -7.53027 19.9317 -7.53027 20.6518C-7.53027 21.3718 -6.99628 22.0434 -6.24383 22.0434C-5.8049 22.0434 -5.35788 21.8512 -5.13336 21.4588C-5.12325 21.4386 -5.11313 21.4184 -5.1192 21.3819C-5.12527 21.3455 -5.14954 21.3152 -5.18191 21.301C-5.24259 21.2747 -5.29113 21.3031 -5.3235 21.3476C-5.54802 21.6672 -5.84333 21.8189 -6.24383 21.8189C-6.82839 21.8189 -7.24305 21.3152 -7.29968 20.763H-5.06459ZM-6.24383 19.4806C-5.65927 19.4806 -5.23652 19.9843 -5.18797 20.5365H-7.29968C-7.24305 19.9843 -6.82839 19.4806 -6.24383 19.4806ZM-2.12761 19.426C-2.12761 19.3714 -2.17414 19.3147 -2.23886 19.3147H-2.83556V18.451C-2.83556 18.3802 -2.89422 18.3297 -2.96906 18.3418C-3.02367 18.3499 -3.06008 18.4005 -3.06008 18.4551V19.3147H-3.63655C-3.69926 19.3147 -3.7478 19.3694 -3.7478 19.426C-3.7478 19.4887 -3.70128 19.5372 -3.63655 19.5372H-3.06008V21.8876C-3.06008 21.9422 -3.01356 21.9989 -2.94883 21.9989C-2.88613 21.9989 -2.83758 21.9443 -2.83758 21.8876V19.5372H-2.23886C-2.17616 19.5372 -2.12761 19.4907 -2.12761 19.426ZM1.41618 21.8735V20.4495C1.41618 19.8427 1.03995 19.2662 0.384595 19.2662C-0.0138793 19.2662 -0.357741 19.4988 -0.549898 19.8427V17.197C-0.549898 17.1423 -0.59642 17.0857 -0.661147 17.0857C-0.723851 17.0857 -0.772397 17.1403 -0.772397 17.197V21.8735C-0.772397 21.9443 -0.713737 21.9948 -0.638896 21.9827C-0.584283 21.9746 -0.547875 21.924 -0.547875 21.8694V20.8014C-0.547875 20.7981 -0.549263 20.784 -0.55089 20.7674C-0.55319 20.7441 -0.555966 20.7158 -0.555966 20.7064C-0.59642 20.0894 -0.301105 19.4907 0.386617 19.4907C0.922635 19.4907 1.19368 19.9701 1.19368 20.4495V21.8735C1.19368 21.9362 1.2402 21.9847 1.30493 21.9847C1.35954 21.9847 1.41618 21.9382 1.41618 21.8735ZM5.30585 20.763C5.36856 20.763 5.42115 20.7104 5.42115 20.6477C5.41912 19.9276 4.87704 19.2581 4.12661 19.2601C3.37618 19.2601 2.84017 19.9317 2.84017 20.6518C2.84017 21.3718 3.37416 22.0434 4.12661 22.0434C4.56554 22.0434 5.01256 21.8512 5.23708 21.4588C5.24719 21.4386 5.25731 21.4184 5.25124 21.3819C5.24517 21.3455 5.2209 21.3152 5.18853 21.301C5.12785 21.2747 5.07931 21.3031 5.04694 21.3476C4.82242 21.6672 4.52711 21.8189 4.12661 21.8189C3.54205 21.8189 3.12739 21.3152 3.07076 20.763H5.30585ZM4.12459 19.4806C4.70915 19.4806 5.1319 19.9843 5.18044 20.5365H3.06873C3.12537 19.9843 3.54002 19.4806 4.12459 19.4806ZM8.06078 19.5372C8.12349 19.5291 8.16394 19.4907 8.16394 19.4179C8.16394 19.3532 8.09921 19.3147 8.0446 19.3127C7.66231 19.3127 7.29418 19.608 7.11011 19.9195V19.424C7.11011 19.3532 7.05145 19.3026 6.97661 19.3147C6.922 19.3228 6.88559 19.3734 6.88559 19.428V21.8654C6.88559 21.9362 6.94425 21.9867 7.01909 21.9746C7.0737 21.9665 7.11011 21.9159 7.11011 21.8613V20.7933C7.11011 20.1683 7.40543 19.6323 8.06078 19.5372ZM11.7178 20.763C11.7806 20.763 11.8331 20.7104 11.8331 20.6477C11.8311 19.9276 11.289 19.2581 10.5386 19.2601C9.78818 19.2601 9.25216 19.9317 9.25216 20.6518C9.25216 21.3718 9.78616 22.0434 10.5386 22.0434C10.9775 22.0434 11.4246 21.8512 11.6491 21.4588C11.6592 21.4386 11.6693 21.4184 11.6632 21.3819C11.6572 21.3455 11.6329 21.3152 11.6005 21.301C11.5398 21.2747 11.4913 21.3031 11.4589 21.3476C11.2344 21.6672 10.9391 21.8189 10.5386 21.8189C9.95404 21.8189 9.53938 21.3152 9.48275 20.763H11.7178ZM10.5366 19.4806C11.1211 19.4806 11.5439 19.9843 11.5924 20.5365H9.48072C9.53736 19.9843 9.95202 19.4806 10.5366 19.4806ZM15.4396 21.8876V19.4462C15.4396 19.3956 15.4073 19.3491 15.3587 19.3329C15.2798 19.3107 15.2151 19.3754 15.2151 19.4401V20.3524C15.2151 21.1271 15.0391 21.831 14.2867 21.831C13.7507 21.831 13.4796 21.3516 13.4796 20.8722V19.4401C13.4796 19.3855 13.4331 19.3289 13.3684 19.3289C13.3057 19.3289 13.2571 19.3835 13.2571 19.4401V20.8722C13.2571 21.479 13.6253 22.0555 14.2887 22.0555C14.7054 22.0555 15.0331 21.7926 15.2171 21.4244V21.8876C15.2171 21.9503 15.2637 21.9989 15.3284 21.9989C15.383 21.9989 15.4396 21.9524 15.4396 21.8876ZM21.0911 21.8735V20.4414C21.0911 19.8346 20.7149 19.2662 20.0615 19.2642C19.5983 19.2642 19.2383 19.5595 19.0542 19.9762C18.9106 19.5514 18.5587 19.2642 18.1035 19.2642C17.7051 19.2642 17.3612 19.4887 17.1691 19.8326V19.424C17.1691 19.3532 17.1104 19.3026 17.0356 19.3147C16.9809 19.3228 16.9445 19.3734 16.9445 19.428V21.8735C16.9445 21.9443 17.0032 21.9948 17.078 21.9827C17.1326 21.9746 17.1691 21.924 17.1691 21.8694V20.7933C17.1746 20.7878 17.1726 20.7709 17.1707 20.7557C17.1699 20.7486 17.1691 20.7418 17.1691 20.7367C17.1448 20.0247 17.4239 19.4887 18.1035 19.4887C18.6396 19.4887 18.9106 19.96 18.9106 20.4394V21.8714C18.9106 21.9342 18.9571 21.9827 19.0219 21.9827C19.0765 21.9827 19.1331 21.9362 19.1331 21.8714V20.7691C19.1331 20.2108 19.39 19.4907 20.0615 19.4907C20.5975 19.4907 20.8686 19.962 20.8686 20.4414V21.8735C20.8686 21.9362 20.9151 21.9847 20.9798 21.9847C21.0345 21.9847 21.0911 21.9382 21.0911 21.8735ZM10.5157 9.32037L6.77978 14.5814L3.04586 9.32037L6.77978 11.5251L10.5157 9.32037Z" fill="#ED5B75"/>
</g>
</svg>
