<svg width="21" height="24" viewBox="0 0 21 24" fill="none" xmlns="http://www.w3.org/2000/svg">
<mask id="mask0_340_169232" style="mask-type:alpha" maskUnits="userSpaceOnUse" x="0" y="0" width="21" height="24">
<rect x="0.558594" y="0.778809" width="20.0759" height="22.4682" fill="#C4C4C4"/>
</mask>
<g mask="url(#mask0_340_169232)">
<path fill-rule="evenodd" clip-rule="evenodd" d="M16.2778 12.5912L10.677 15.9014L5.07607 12.5912L10.677 3.29785L16.2778 12.5912ZM-7.09054 30.8169C-6.99648 30.8169 -6.91759 30.738 -6.91759 30.6439C-6.91759 29.5638 -7.73376 28.5595 -8.8594 28.5625C-9.98504 28.5625 -10.7891 29.5699 -10.7891 30.65C-10.7891 31.7301 -9.98807 32.7374 -8.8594 32.7374C-8.201 32.7374 -7.53047 32.4492 -7.19369 31.8606C-7.17852 31.8302 -7.16335 31.7999 -7.17245 31.7453C-7.18156 31.6907 -7.21797 31.6452 -7.26651 31.6239C-7.35753 31.5845 -7.43035 31.627 -7.4789 31.6937C-7.81568 32.1731 -8.25865 32.4006 -8.8594 32.4006C-9.73624 32.4006 -10.3582 31.6452 -10.4432 30.8169H-7.09054ZM-8.8594 28.8933C-7.98255 28.8933 -7.34843 29.6487 -7.27561 30.477H-10.4432C-10.3582 29.6487 -9.73624 28.8933 -8.8594 28.8933ZM-2.68507 28.8113C-2.68507 28.7294 -2.75486 28.6445 -2.85194 28.6445H-3.74699V27.3489C-3.74699 27.2427 -3.83498 27.1669 -3.94724 27.1851C-4.02916 27.1972 -4.08378 27.2731 -4.08378 27.355V28.6445H-4.94848C-5.04254 28.6445 -5.11536 28.7264 -5.11536 28.8113C-5.11536 28.9054 -5.04557 28.9782 -4.94848 28.9782H-4.08378V32.5038C-4.08378 32.5857 -4.01399 32.6707 -3.9169 32.6707C-3.82284 32.6707 -3.75003 32.5888 -3.75003 32.5038V28.9782H-2.85194C-2.75789 28.9782 -2.68507 28.9084 -2.68507 28.8113ZM2.63061 32.4826V30.3466C2.63061 29.4364 2.06628 28.5717 1.08324 28.5717C0.48553 28.5717 -0.0302629 28.9206 -0.3185 29.4364V25.4678C-0.3185 25.3859 -0.388282 25.3009 -0.485373 25.3009C-0.579429 25.3009 -0.652246 25.3828 -0.652246 25.4678V32.4826C-0.652246 32.5888 -0.564257 32.6646 -0.451997 32.6464C-0.370076 32.6343 -0.315464 32.5584 -0.315464 32.4765V30.8745C-0.315464 30.8695 -0.317546 30.8483 -0.319985 30.8235C-0.323436 30.7885 -0.3276 30.7461 -0.3276 30.7319C-0.388282 29.8065 0.0546913 28.9084 1.08627 28.9084C1.8903 28.9084 2.29687 29.6275 2.29687 30.3466V32.4826C2.29687 32.5766 2.36665 32.6494 2.46374 32.6494C2.54566 32.6494 2.63061 32.5797 2.63061 32.4826ZM8.46513 30.8169C8.55918 30.8169 8.63807 30.738 8.63807 30.6439C8.63503 29.5638 7.8219 28.5595 6.69626 28.5625C5.57063 28.5625 4.7666 29.5699 4.7666 30.65C4.7666 31.7301 5.56759 32.7374 6.69626 32.7374C7.35466 32.7374 8.02519 32.4492 8.36197 31.8606C8.37714 31.8302 8.39231 31.7999 8.38321 31.7453C8.3741 31.6907 8.33769 31.6452 8.28915 31.6239C8.19813 31.5845 8.12531 31.627 8.07677 31.6937C7.73998 32.1731 7.29701 32.4006 6.69626 32.4006C5.81942 32.4006 5.19743 31.6452 5.11248 30.8169H8.46513ZM6.69323 28.8933C7.57008 28.8933 8.2042 29.6487 8.27701 30.477H5.10945C5.1944 29.6487 5.81639 28.8933 6.69323 28.8933ZM12.5975 28.9782C12.6916 28.9661 12.7523 28.9084 12.7523 28.7992C12.7523 28.7021 12.6552 28.6445 12.5732 28.6414C11.9998 28.6414 11.4476 29.0844 11.1715 29.5517V28.8083C11.1715 28.7021 11.0835 28.6263 10.9713 28.6445C10.8893 28.6566 10.8347 28.7325 10.8347 28.8144V32.4704C10.8347 32.5766 10.9227 32.6525 11.035 32.6343C11.1169 32.6221 11.1715 32.5463 11.1715 32.4644V30.8624C11.1715 29.9248 11.6145 29.1208 12.5975 28.9782ZM18.0831 30.8169C18.1772 30.8169 18.2561 30.738 18.2561 30.6439C18.253 29.5638 17.4399 28.5595 16.3143 28.5625C15.1886 28.5625 14.3846 29.5699 14.3846 30.65C14.3846 31.7301 15.1856 32.7374 16.3143 32.7374C16.9726 32.7374 17.6432 32.4492 17.98 31.8606C17.9951 31.8302 18.0103 31.7999 18.0012 31.7453C17.9921 31.6907 17.9557 31.6452 17.9071 31.6239C17.8161 31.5845 17.7433 31.627 17.6948 31.6937C17.358 32.1731 16.915 32.4006 16.3143 32.4006C15.4374 32.4006 14.8154 31.6452 14.7305 30.8169H18.0831ZM16.3112 28.8933C17.1881 28.8933 17.8222 29.6487 17.895 30.477H14.7274C14.8124 29.6487 15.4344 28.8933 16.3112 28.8933ZM23.6658 32.5038V28.8417C23.6658 28.7658 23.6173 28.6961 23.5444 28.6718C23.4261 28.6384 23.329 28.7355 23.329 28.8326V30.2009C23.329 31.363 23.0651 32.4189 21.9364 32.4189C21.1324 32.4189 20.7258 31.6998 20.7258 30.9807V28.8326C20.7258 28.7507 20.656 28.6657 20.5589 28.6657C20.4649 28.6657 20.392 28.7476 20.392 28.8326V30.9807C20.392 31.8909 20.9442 32.7556 21.9394 32.7556C22.5644 32.7556 23.056 32.3612 23.3321 31.809V32.5038C23.3321 32.5979 23.4018 32.6707 23.4989 32.6707C23.5808 32.6707 23.6658 32.6009 23.6658 32.5038ZM32.143 32.4826V30.3344C32.143 29.4242 31.5786 28.5717 30.5986 28.5686C29.9038 28.5686 29.3638 29.0116 29.0877 29.6366C28.8723 28.9995 28.3443 28.5686 27.6617 28.5686C27.064 28.5686 26.5482 28.9054 26.2599 29.4212V28.8083C26.2599 28.7021 26.1719 28.6263 26.0597 28.6445C25.9778 28.6566 25.9231 28.7325 25.9231 28.8144V32.4826C25.9231 32.5888 26.0111 32.6646 26.1234 32.6464C26.2053 32.6343 26.2599 32.5584 26.2599 32.4765V30.8624C26.2682 30.8541 26.2652 30.8288 26.2624 30.8058C26.2611 30.7952 26.2599 30.7851 26.2599 30.7774C26.2235 29.7094 26.6422 28.9054 27.6617 28.9054C28.4657 28.9054 28.8723 29.6123 28.8723 30.3314V32.4795C28.8723 32.5736 28.942 32.6464 29.0391 32.6464C29.121 32.6464 29.206 32.5766 29.206 32.4795V30.826C29.206 29.9886 29.5913 28.9084 30.5986 28.9084C31.4027 28.9084 31.8092 29.6154 31.8092 30.3344V32.4826C31.8092 32.5766 31.879 32.6494 31.9761 32.6494C32.058 32.6494 32.143 32.5797 32.143 32.4826ZM16.28 13.6536L10.6761 21.5452L5.0752 13.6536L10.6761 16.9607L16.28 13.6536Z" fill="#FBB142"/>
</g>
</svg>
