<svg width="23" height="23" viewBox="0 0 23 23" fill="none" xmlns="http://www.w3.org/2000/svg">
<path d="M23 11.5C23 17.6443 18.1813 22.6634 12.1168 22.9836C11.9126 22.9943 11.707 23 11.5 23C10.8954 23 10.3021 22.9536 9.72289 22.8634C9.21972 22.7855 8.72778 22.6752 8.249 22.5339C7.4825 22.3086 6.74978 22.0058 6.05933 21.6341C4.69622 20.9009 3.49834 19.9006 2.53517 18.7032C2.34133 18.4629 2.15733 18.2141 1.98317 17.9578C0.731328 16.1169 0 13.8939 0 11.5C0 5.14872 5.14872 0 11.5 0C17.8513 0 23 5.14872 23 11.5Z" fill="#F99400"/>
<path d="M19.8581 7.92516C19.5845 7.19478 19.0879 6.56111 18.3674 6.02178C17.9496 5.70917 17.4032 5.42894 16.7541 5.17406L17.4727 2.41217L15.2013 1.82078L14.5066 4.48922L13.0464 4.1095L13.7406 1.44105L11.4692 0.849609L10.7745 3.51806L5.95252 2.26294L5.36813 4.5085L6.00696 4.67511C6.43224 4.78544 6.71152 4.89994 6.84341 5.01683C6.97341 5.13322 7.05324 5.26606 7.08046 5.41394C7.11002 5.56227 7.05935 5.87583 6.93447 6.35694L4.57863 15.4072C4.45563 15.8799 4.34535 16.177 4.24818 16.2962C4.15101 16.4168 4.01818 16.4934 3.84734 16.5276C3.67601 16.5614 3.16862 16.4694 2.74334 16.3591L1.9834 17.9578C2.15756 18.2141 2.34156 18.4629 2.5354 18.7032L6.55056 19.7481L6.05957 21.6341C6.75002 22.0058 7.48274 22.3086 8.24924 22.5339L8.82047 20.3391L10.2315 20.7066C10.2479 20.7104 10.2648 20.7137 10.2812 20.7179L9.72313 22.8634C10.3023 22.9535 10.8956 23 11.5002 23C11.7072 23 11.9128 22.9944 12.117 22.9836L12.5873 21.1769C13.3463 21.2727 13.9997 21.2872 14.5432 21.2177C15.5905 21.0844 16.4691 20.723 17.1765 20.1321C17.8844 19.5425 18.3505 18.8168 18.5749 17.955C18.7607 17.235 18.7593 16.5375 18.5716 15.8625C18.3829 15.1899 18.0407 14.6121 17.5431 14.1361C17.2024 13.7996 16.6752 13.4334 15.9665 13.0438C16.7381 12.987 17.3854 12.8307 17.9154 12.5754C18.4415 12.3186 18.8827 11.9807 19.239 11.5582C19.5925 11.1377 19.8408 10.6589 19.9797 10.1238C20.1716 9.38777 20.1304 8.65456 19.8581 7.92516ZM14.4728 16.4318C14.3268 16.9965 14.0414 17.4391 13.6199 17.7607C13.1975 18.0803 12.7426 18.2465 12.2568 18.2568C11.7715 18.2672 11.1838 18.1836 10.4952 18.0043L9.31092 17.6959C8.91525 17.5931 8.68053 17.5086 8.60215 17.4429C8.52421 17.3762 8.48059 17.2852 8.46931 17.1659C8.45947 17.0716 8.51626 16.7782 8.63781 16.2779L9.5522 12.7645L11.6518 13.3109C12.5736 13.5512 13.2359 13.815 13.641 14.1023C14.0452 14.3886 14.3165 14.7294 14.454 15.1213C14.5916 15.5142 14.5981 15.9503 14.4728 16.4318ZM15.8885 9.70789C15.7819 10.1186 15.5749 10.4519 15.2675 10.7072C14.9614 10.9635 14.5643 11.1109 14.0785 11.1494C13.5922 11.1883 12.8839 11.0874 11.9527 10.8452L10.1737 10.3819L11.2035 6.425L12.9825 6.88783C14.0227 7.15866 14.7268 7.41072 15.0966 7.64355C15.466 7.87638 15.7176 8.173 15.8533 8.52977C15.9871 8.88784 16.0002 9.28028 15.8885 9.70789Z" fill="white"/>
</svg>
