<svg width="68" height="68" viewBox="0 0 68 68" fill="none" xmlns="http://www.w3.org/2000/svg">
<g filter="url(#filter0_d_339_152271)">
<rect x="16.5889" y="13.8247" width="29.9576" height="29.9576" rx="2.49647" fill="#4FDFB1"/>
</g>
<g clip-path="url(#clip0_339_152271)">
<path d="M34.6879 23.1862H37.1844C37.3499 23.1862 37.5087 23.252 37.6257 23.369C37.7427 23.4861 37.8085 23.6448 37.8085 23.8103V33.7962C37.8085 33.9617 37.7427 34.1205 37.6257 34.2375C37.5087 34.3546 37.3499 34.4203 37.1844 34.4203H25.9503C25.7848 34.4203 25.626 34.3546 25.509 34.2375C25.3919 34.1205 25.3262 33.9617 25.3262 33.7962V23.8103C25.3262 23.6448 25.3919 23.4861 25.509 23.369C25.626 23.252 25.7848 23.1862 25.9503 23.1862H28.4468V21.938H29.695V23.1862H33.4397V21.938H34.6879V23.1862ZM26.5744 26.9309V33.1721H36.5603V26.9309H26.5744ZM27.8226 28.1792H29.0709V29.4274H27.8226V28.1792ZM30.9432 28.1792H32.1915V29.4274H30.9432V28.1792ZM34.0638 28.1792H35.312V29.4274H34.0638V28.1792Z" fill="white"/>
</g>
<defs>
<filter id="filter0_d_339_152271" x="0.361825" y="0.0941324" width="67.405" height="67.4045" filterUnits="userSpaceOnUse" color-interpolation-filters="sRGB">
<feFlood flood-opacity="0" result="BackgroundImageFix"/>
<feColorMatrix in="SourceAlpha" type="matrix" values="0 0 0 0 0 0 0 0 0 0 0 0 0 0 0 0 0 0 127 0" result="hardAlpha"/>
<feOffset dx="2.49647" dy="4.99294"/>
<feGaussianBlur stdDeviation="9.36176"/>
<feComposite in2="hardAlpha" operator="out"/>
<feColorMatrix type="matrix" values="0 0 0 0 0.309804 0 0 0 0 0.87451 0 0 0 0 0.694118 0 0 0 0.35 0"/>
<feBlend mode="normal" in2="BackgroundImageFix" result="effect1_dropShadow_339_152271"/>
<feBlend mode="normal" in="SourceGraphic" in2="effect1_dropShadow_339_152271" result="shape"/>
</filter>
<clipPath id="clip0_339_152271">
<rect width="14.9788" height="14.9788" fill="white" transform="translate(24.0781 21.314)"/>
</clipPath>
</defs>
</svg>
