<svg width="21" height="23" viewBox="0 0 21 23" fill="none" xmlns="http://www.w3.org/2000/svg">
<mask id="mask0_340_169246" style="mask-type:alpha" maskUnits="userSpaceOnUse" x="0" y="0" width="21" height="23">
<rect x="0.557617" y="0.221191" width="20.0759" height="22.4682" fill="#C4C4C4"/>
</mask>
<g mask="url(#mask0_340_169246)">
<path fill-rule="evenodd" clip-rule="evenodd" d="M16.2759 12.0321L10.675 15.3423L5.07412 12.0321L10.675 2.73877L16.2759 12.0321ZM-7.09249 30.2578C-6.99843 30.2578 -6.91955 30.1789 -6.91955 30.0848C-6.91955 29.0047 -7.73571 28.0004 -8.86135 28.0035C-9.98699 28.0035 -10.791 29.0108 -10.791 30.0909C-10.791 31.171 -9.99002 32.1783 -8.86135 32.1783C-8.20296 32.1783 -7.53243 31.8901 -7.19565 31.3015C-7.18048 31.2712 -7.16531 31.2408 -7.17441 31.1862C-7.18351 31.1316 -7.21992 31.0861 -7.26846 31.0648C-7.35949 31.0254 -7.4323 31.0679 -7.48085 31.1346C-7.81763 31.614 -8.2606 31.8416 -8.86135 31.8416C-9.7382 31.8416 -10.3602 31.0861 -10.4451 30.2578H-7.09249ZM-8.86135 28.3342C-7.9845 28.3342 -7.35038 29.0897 -7.27757 29.918H-10.4451C-10.3602 29.0897 -9.7382 28.3342 -8.86135 28.3342ZM-2.68702 28.2523C-2.68702 28.1703 -2.75681 28.0854 -2.8539 28.0854H-3.74895V26.7898C-3.74895 26.6836 -3.83693 26.6078 -3.9492 26.626C-4.03112 26.6381 -4.08573 26.714 -4.08573 26.7959V28.0854H-4.95044C-5.04449 28.0854 -5.11731 28.1673 -5.11731 28.2523C-5.11731 28.3463 -5.04753 28.4191 -4.95044 28.4191H-4.08573V31.9447C-4.08573 32.0266 -4.01594 32.1116 -3.91885 32.1116C-3.8248 32.1116 -3.75198 32.0297 -3.75198 31.9447V28.4191H-2.8539C-2.75984 28.4191 -2.68702 28.3494 -2.68702 28.2523ZM2.62866 31.9235V29.7875C2.62866 28.8773 2.06433 28.0126 1.08129 28.0126C0.483577 28.0126 -0.0322161 28.3615 -0.320453 28.8773V24.9087C-0.320453 24.8268 -0.390235 24.7418 -0.487326 24.7418C-0.581382 24.7418 -0.6542 24.8238 -0.6542 24.9087V31.9235C-0.6542 32.0297 -0.56621 32.1055 -0.45395 32.0873C-0.372029 32.0752 -0.317417 31.9993 -0.317417 31.9174V30.3154C-0.317417 30.3104 -0.319499 30.2892 -0.321939 30.2644C-0.325389 30.2294 -0.329554 30.187 -0.329554 30.1728C-0.390235 29.2474 0.0527382 28.3493 1.08432 28.3493C1.88835 28.3493 2.29491 29.0684 2.29491 29.7875V31.9235C2.29491 32.0175 2.3647 32.0904 2.46179 32.0904C2.54371 32.0904 2.62866 32.0206 2.62866 31.9235ZM8.46317 30.2578C8.55723 30.2578 8.63611 30.1789 8.63611 30.0848C8.63308 29.0047 7.81995 28.0004 6.69431 28.0035C5.56867 28.0035 4.76464 29.0108 4.76464 30.0909C4.76464 31.171 5.56564 32.1783 6.69431 32.1783C7.3527 32.1783 8.02323 31.8901 8.36001 31.3015C8.37519 31.2712 8.39035 31.2408 8.38125 31.1862C8.37215 31.1316 8.33574 31.0861 8.2872 31.0648C8.19617 31.0254 8.12336 31.0679 8.07481 31.1346C7.73803 31.614 7.29506 31.8416 6.69431 31.8416C5.81746 31.8416 5.19548 31.0861 5.11053 30.2578H8.46317ZM6.69128 28.3342C7.56812 28.3342 8.20224 29.0897 8.27506 29.918H5.10749C5.19245 29.0897 5.81443 28.3342 6.69128 28.3342ZM12.5956 28.4191C12.6896 28.407 12.7503 28.3494 12.7503 28.2401C12.7503 28.143 12.6532 28.0854 12.5713 28.0824C11.9979 28.0824 11.4457 28.5253 11.1696 28.9926V28.2492C11.1696 28.143 11.0816 28.0672 10.9693 28.0854C10.8874 28.0975 10.8328 28.1734 10.8328 28.2553V31.9114C10.8328 32.0175 10.9208 32.0934 11.033 32.0752C11.1149 32.0631 11.1696 31.9872 11.1696 31.9053V30.3033C11.1696 29.3658 11.6125 28.5617 12.5956 28.4191ZM18.0812 30.2578C18.1752 30.2578 18.2541 30.1789 18.2541 30.0848C18.2511 29.0047 17.4379 28.0004 16.3123 28.0035C15.1867 28.0035 14.3826 29.0108 14.3826 30.0909C14.3826 31.171 15.1836 32.1783 16.3123 32.1783C16.9707 32.1783 17.6412 31.8901 17.978 31.3015C17.9932 31.2712 18.0083 31.2408 17.9992 31.1862C17.9901 31.1316 17.9537 31.0861 17.9052 31.0648C17.8142 31.0254 17.7413 31.0679 17.6928 31.1346C17.356 31.614 16.913 31.8416 16.3123 31.8416C15.4355 31.8416 14.8135 31.0861 14.7285 30.2578H18.0812ZM16.3093 28.3342C17.1861 28.3342 17.8202 29.0897 17.8931 29.918H14.7255C14.8104 29.0897 15.4324 28.3342 16.3093 28.3342ZM23.6638 31.9447V28.2826C23.6638 28.2067 23.6153 28.137 23.5425 28.1127C23.4242 28.0793 23.3271 28.1764 23.3271 28.2735V29.6419C23.3271 30.8039 23.0631 31.8598 21.9344 31.8598C21.1304 31.8598 20.7238 31.1407 20.7238 30.4216V28.2735C20.7238 28.1916 20.654 28.1066 20.557 28.1066C20.4629 28.1066 20.3901 28.1885 20.3901 28.2735V30.4216C20.3901 31.3318 20.9423 32.1966 21.9375 32.1966C22.5625 32.1966 23.054 31.8021 23.3301 31.2499V31.9447C23.3301 32.0388 23.3999 32.1116 23.497 32.1116C23.5789 32.1116 23.6638 32.0418 23.6638 31.9447ZM32.141 31.9235V29.7754C32.141 28.8651 31.5767 28.0126 30.5967 28.0095C29.9019 28.0095 29.3618 28.4525 29.0857 29.0775C28.8703 28.4404 28.3424 28.0095 27.6597 28.0095C27.062 28.0095 26.5462 28.3463 26.258 28.8621V28.2492C26.258 28.143 26.17 28.0672 26.0577 28.0854C25.9758 28.0975 25.9212 28.1734 25.9212 28.2553V31.9235C25.9212 32.0297 26.0092 32.1055 26.1214 32.0873C26.2034 32.0752 26.258 31.9993 26.258 31.9174V30.3033C26.2663 30.295 26.2632 30.2697 26.2605 30.2468C26.2592 30.2361 26.258 30.226 26.258 30.2183C26.2216 29.1503 26.6403 28.3463 27.6597 28.3463C28.4637 28.3463 28.8703 29.0533 28.8703 29.7723V31.9205C28.8703 32.0145 28.9401 32.0873 29.0372 32.0873C29.1191 32.0873 29.2041 32.0175 29.2041 31.9205V30.2669C29.2041 29.4295 29.5894 28.3493 30.5967 28.3493C31.4007 28.3493 31.8073 29.0563 31.8073 29.7754V31.9235C31.8073 32.0175 31.8771 32.0904 31.9742 32.0904C32.0561 32.0904 32.141 32.0206 32.141 31.9235ZM16.278 13.0938L10.6741 20.9854L5.07324 13.0938L10.6741 16.4009L16.278 13.0938Z" fill="#4FDFB1"/>
</g>
</svg>
