<svg width="258" height="247" viewBox="0 0 258 247" fill="none" xmlns="http://www.w3.org/2000/svg">
<ellipse cx="131.818" cy="124.284" rx="68.9217" ry="70.1781" fill="white" fill-opacity="0.1"/>
<path d="M177.868 164.521C184.314 156.959 188.9 147.986 191.257 138.322C193.613 128.659 193.675 118.575 191.437 108.883L178.811 111.816C180.592 119.526 180.543 127.547 178.668 135.234C176.793 142.921 173.145 150.059 168.018 156.074L177.868 164.521Z" fill="#B1D3FF"/>
<path d="M122.837 186.398C132.698 187.477 142.673 186.218 151.961 182.724C161.248 179.23 169.588 173.598 176.308 166.281L166.777 157.474C161.431 163.295 154.797 167.775 147.409 170.554C140.021 173.333 132.086 174.334 124.242 173.476L122.837 186.398Z" fill="#155AB6"/>
<path d="M146.623 184.466C159.172 180.979 170.345 173.699 178.622 163.617L168.617 155.355C162.033 163.375 153.145 169.166 143.163 171.939L146.623 184.466Z" fill="#00C4DF"/>
<path d="M194.896 108.692C192.027 96.958 185.951 86.2591 177.35 77.7998C168.749 69.3405 157.965 63.4565 146.211 60.8097C134.458 58.163 122.201 58.8586 110.82 62.8183C99.4387 66.778 89.3853 73.8446 81.7907 83.2231C74.1962 92.6015 69.3619 103.92 67.8318 115.904C66.3018 127.888 68.1366 140.062 73.1299 151.057C78.1233 162.053 86.0769 171.432 96.0959 178.14C106.115 184.848 117.802 188.619 129.841 189.028L130.494 169.7C122.041 169.413 113.836 166.766 106.801 162.056C99.7671 157.346 94.1828 150.761 90.677 143.041C87.1712 135.322 85.883 126.774 86.9572 118.36C88.0315 109.946 91.4257 102 96.7578 95.415C102.09 88.8304 109.148 83.8689 117.139 81.0888C125.13 78.3087 133.735 77.8203 141.987 79.6786C150.24 81.5368 157.811 85.668 163.85 91.6073C169.889 97.5466 174.155 105.058 176.169 113.297L194.896 108.692Z" fill="#3380FF"/>
</svg>
