<svg width="68" height="68" viewBox="0 0 68 68" fill="none" xmlns="http://www.w3.org/2000/svg">
<g filter="url(#filter0_d_339_152288)">
<rect x="16.5889" y="13.7598" width="29.9576" height="29.9576" rx="2.49647" fill="#ED5B75"/>
</g>
<g clip-path="url(#clip0_339_152288)">
<path d="M31.5664 34.9804C28.1194 34.9804 25.3252 32.1862 25.3252 28.7392C25.3252 25.2922 28.1194 22.498 31.5664 22.498C35.0134 22.498 37.8075 25.2922 37.8075 28.7392C37.8075 32.1862 35.0134 34.9804 31.5664 34.9804ZM31.5664 33.7322C32.8906 33.7322 34.1605 33.2061 35.0969 32.2698C36.0333 31.3334 36.5593 30.0634 36.5593 28.7392C36.5593 27.415 36.0333 26.145 35.0969 25.2087C34.1605 24.2723 32.8906 23.7463 31.5664 23.7463C30.2422 23.7463 28.9722 24.2723 28.0358 25.2087C27.0995 26.145 26.5734 27.415 26.5734 28.7392C26.5734 30.0634 27.0995 31.3334 28.0358 32.2698C28.9722 33.2061 30.2422 33.7322 31.5664 33.7322V33.7322ZM29.382 29.9875H32.8146C32.8974 29.9875 32.9767 29.9546 33.0353 29.8961C33.0938 29.8375 33.1267 29.7582 33.1267 29.6754C33.1267 29.5926 33.0938 29.5133 33.0353 29.4547C32.9767 29.3962 32.8974 29.3633 32.8146 29.3633H30.3181C29.9043 29.3633 29.5074 29.1989 29.2148 28.9063C28.9222 28.6137 28.7578 28.2169 28.7578 27.803C28.7578 27.3892 28.9222 26.9924 29.2148 26.6997C29.5074 26.4071 29.9043 26.2428 30.3181 26.2428H30.9422V24.9945H32.1905V26.2428H33.7508V27.491H30.3181C30.2354 27.491 30.156 27.5239 30.0975 27.5824C30.0389 27.6409 30.0061 27.7203 30.0061 27.803C30.0061 27.8858 30.0389 27.9652 30.0975 28.0237C30.156 28.0822 30.2354 28.1151 30.3181 28.1151H32.8146C33.2284 28.1151 33.6253 28.2795 33.9179 28.5721C34.2105 28.8647 34.3749 29.2616 34.3749 29.6754C34.3749 30.0892 34.2105 30.4861 33.9179 30.7787C33.6253 31.0713 33.2284 31.2357 32.8146 31.2357H32.1905V32.4839H30.9422V31.2357H29.382V29.9875Z" fill="white"/>
</g>
<defs>
<filter id="filter0_d_339_152288" x="0.361825" y="0.029191" width="67.405" height="67.4045" filterUnits="userSpaceOnUse" color-interpolation-filters="sRGB">
<feFlood flood-opacity="0" result="BackgroundImageFix"/>
<feColorMatrix in="SourceAlpha" type="matrix" values="0 0 0 0 0 0 0 0 0 0 0 0 0 0 0 0 0 0 127 0" result="hardAlpha"/>
<feOffset dx="2.49647" dy="4.99294"/>
<feGaussianBlur stdDeviation="9.36176"/>
<feComposite in2="hardAlpha" operator="out"/>
<feColorMatrix type="matrix" values="0 0 0 0 0.929412 0 0 0 0 0.356863 0 0 0 0 0.458824 0 0 0 0.35 0"/>
<feBlend mode="normal" in2="BackgroundImageFix" result="effect1_dropShadow_339_152288"/>
<feBlend mode="normal" in="SourceGraphic" in2="effect1_dropShadow_339_152288" result="shape"/>
</filter>
<clipPath id="clip0_339_152288">
<rect width="14.9788" height="14.9788" fill="white" transform="translate(24.0781 21.25)"/>
</clipPath>
</defs>
</svg>
