<svg width="14" height="16" viewBox="0 0 14 16" fill="none" xmlns="http://www.w3.org/2000/svg">
<mask id="mask0_339_152263" style="mask-type:alpha" maskUnits="userSpaceOnUse" x="0" y="0" width="14" height="16">
<rect x="0.0351562" y="0.867188" width="13.3839" height="14.9788" fill="#C4C4C4"/>
</mask>
<g mask="url(#mask0_339_152263)">
<path fill-rule="evenodd" clip-rule="evenodd" d="M10.5143 8.74196L6.78041 10.9487L3.04648 8.74196L6.78041 2.54639L10.5143 8.74196ZM-5.06459 20.8924C-5.00189 20.8924 -4.94929 20.8398 -4.94929 20.7771C-4.94929 20.057 -5.4934 19.3875 -6.24383 19.3895C-6.99426 19.3895 -7.53027 20.0611 -7.53027 20.7811C-7.53027 21.5012 -6.99628 22.1728 -6.24383 22.1728C-5.8049 22.1728 -5.35788 21.9806 -5.13336 21.5882C-5.12325 21.568 -5.11313 21.5478 -5.1192 21.5113C-5.12527 21.4749 -5.14954 21.4446 -5.18191 21.4304C-5.24259 21.4041 -5.29113 21.4325 -5.3235 21.477C-5.54802 21.7965 -5.84333 21.9482 -6.24383 21.9482C-6.82839 21.9482 -7.24305 21.4446 -7.29968 20.8924H-5.06459ZM-6.24383 19.61C-5.65927 19.61 -5.23652 20.1137 -5.18797 20.6659H-7.29968C-7.24305 20.1137 -6.82839 19.61 -6.24383 19.61ZM-2.12761 19.5554C-2.12761 19.5008 -2.17414 19.4441 -2.23886 19.4441H-2.83556V18.5804C-2.83556 18.5096 -2.89422 18.4591 -2.96906 18.4712C-3.02367 18.4793 -3.06008 18.5299 -3.06008 18.5845V19.4441H-3.63655C-3.69926 19.4441 -3.7478 19.4987 -3.7478 19.5554C-3.7478 19.6181 -3.70128 19.6666 -3.63655 19.6666H-3.06008V22.017C-3.06008 22.0716 -3.01356 22.1283 -2.94883 22.1283C-2.88613 22.1283 -2.83758 22.0737 -2.83758 22.017V19.6666H-2.23886C-2.17616 19.6666 -2.12761 19.6201 -2.12761 19.5554ZM1.41618 22.0029V20.5789C1.41618 19.9721 1.03995 19.3956 0.384595 19.3956C-0.0138793 19.3956 -0.357741 19.6282 -0.549898 19.9721V17.3264C-0.549898 17.2717 -0.59642 17.2151 -0.661147 17.2151C-0.723851 17.2151 -0.772397 17.2697 -0.772397 17.3264V22.0029C-0.772397 22.0737 -0.713737 22.1242 -0.638896 22.1121C-0.584283 22.104 -0.547875 22.0534 -0.547875 21.9988V20.9308C-0.547875 20.9275 -0.549263 20.9134 -0.55089 20.8968C-0.55319 20.8735 -0.555966 20.8452 -0.555966 20.8358C-0.59642 20.2188 -0.301105 19.6201 0.386617 19.6201C0.922635 19.6201 1.19368 20.0995 1.19368 20.5789V22.0029C1.19368 22.0656 1.2402 22.1141 1.30493 22.1141C1.35954 22.1141 1.41618 22.0676 1.41618 22.0029ZM5.30585 20.8924C5.36856 20.8924 5.42115 20.8398 5.42115 20.7771C5.41912 20.057 4.87704 19.3875 4.12661 19.3895C3.37618 19.3895 2.84017 20.0611 2.84017 20.7811C2.84017 21.5012 3.37416 22.1728 4.12661 22.1728C4.56554 22.1728 5.01256 21.9806 5.23708 21.5882C5.24719 21.568 5.25731 21.5478 5.25124 21.5113C5.24517 21.4749 5.2209 21.4446 5.18853 21.4304C5.12785 21.4041 5.07931 21.4325 5.04694 21.477C4.82242 21.7965 4.52711 21.9482 4.12661 21.9482C3.54205 21.9482 3.12739 21.4446 3.07076 20.8924H5.30585ZM4.12459 19.61C4.70915 19.61 5.1319 20.1137 5.18044 20.6659H3.06873C3.12537 20.1137 3.54002 19.61 4.12459 19.61ZM8.06078 19.6666C8.12349 19.6585 8.16394 19.6201 8.16394 19.5473C8.16394 19.4826 8.09921 19.4441 8.0446 19.4421C7.66231 19.4421 7.29418 19.7374 7.11011 20.0489V19.5534C7.11011 19.4826 7.05145 19.432 6.97661 19.4441C6.922 19.4522 6.88559 19.5028 6.88559 19.5574V21.9948C6.88559 22.0656 6.94425 22.1161 7.01909 22.104C7.0737 22.0959 7.11011 22.0453 7.11011 21.9907V20.9227C7.11011 20.2977 7.40543 19.7617 8.06078 19.6666ZM11.7178 20.8924C11.7806 20.8924 11.8331 20.8398 11.8331 20.7771C11.8311 20.057 11.289 19.3875 10.5386 19.3895C9.78818 19.3895 9.25216 20.0611 9.25216 20.7811C9.25216 21.5012 9.78616 22.1728 10.5386 22.1728C10.9775 22.1728 11.4246 21.9806 11.6491 21.5882C11.6592 21.568 11.6693 21.5478 11.6632 21.5113C11.6572 21.4749 11.6329 21.4446 11.6005 21.4304C11.5398 21.4041 11.4913 21.4325 11.4589 21.477C11.2344 21.7965 10.9391 21.9482 10.5386 21.9482C9.95404 21.9482 9.53938 21.4446 9.48275 20.8924H11.7178ZM10.5366 19.61C11.1211 19.61 11.5439 20.1137 11.5924 20.6659H9.48072C9.53736 20.1137 9.95202 19.61 10.5366 19.61ZM15.4396 22.017V19.5756C15.4396 19.525 15.4073 19.4785 15.3587 19.4623C15.2798 19.4401 15.2151 19.5048 15.2151 19.5695V20.4818C15.2151 21.2565 15.0391 21.9604 14.2867 21.9604C13.7507 21.9604 13.4796 21.481 13.4796 21.0016V19.5695C13.4796 19.5149 13.4331 19.4583 13.3684 19.4583C13.3057 19.4583 13.2571 19.5129 13.2571 19.5695V21.0016C13.2571 21.6084 13.6253 22.1849 14.2887 22.1849C14.7054 22.1849 15.0331 21.922 15.2171 21.5538V22.017C15.2171 22.0797 15.2637 22.1283 15.3284 22.1283C15.383 22.1283 15.4396 22.0817 15.4396 22.017ZM21.0911 22.0029V20.5708C21.0911 19.964 20.7149 19.3956 20.0615 19.3936C19.5983 19.3936 19.2383 19.6889 19.0542 20.1056C18.9106 19.6808 18.5587 19.3936 18.1035 19.3936C17.7051 19.3936 17.3612 19.6181 17.1691 19.9619V19.5534C17.1691 19.4826 17.1104 19.432 17.0356 19.4441C16.9809 19.4522 16.9445 19.5028 16.9445 19.5574V22.0029C16.9445 22.0737 17.0032 22.1242 17.078 22.1121C17.1326 22.104 17.1691 22.0534 17.1691 21.9988V20.9227C17.1746 20.9172 17.1726 20.9003 17.1707 20.8851C17.1699 20.878 17.1691 20.8712 17.1691 20.8661C17.1448 20.1541 17.4239 19.6181 18.1035 19.6181C18.6396 19.6181 18.9106 20.0894 18.9106 20.5688V22.0008C18.9106 22.0635 18.9571 22.1121 19.0219 22.1121C19.0765 22.1121 19.1331 22.0656 19.1331 22.0008V20.8985C19.1331 20.3402 19.39 19.6201 20.0615 19.6201C20.5975 19.6201 20.8686 20.0914 20.8686 20.5708V22.0029C20.8686 22.0656 20.9151 22.1141 20.9798 22.1141C21.0345 22.1141 21.0911 22.0676 21.0911 22.0029ZM10.5154 9.45023L6.77944 14.7113L3.04552 9.45023L6.77944 11.655L10.5154 9.45023Z" fill="#FBB142"/>
</g>
</svg>
