<svg width="21" height="24" viewBox="0 0 21 24" fill="none" xmlns="http://www.w3.org/2000/svg">
<mask id="mask0_340_169262" style="mask-type:alpha" maskUnits="userSpaceOnUse" x="0" y="0" width="21" height="24">
<rect x="0.558594" y="0.586426" width="20.0759" height="22.4682" fill="#C4C4C4"/>
</mask>
<g mask="url(#mask0_340_169262)">
<path fill-rule="evenodd" clip-rule="evenodd" d="M16.2769 12.3974L10.676 15.7075L5.07509 12.3974L10.676 3.104L16.2769 12.3974ZM-7.09151 30.623C-6.99746 30.623 -6.91857 30.5441 -6.91857 30.4501C-6.91857 29.3699 -7.73473 28.3657 -8.86037 28.3687C-9.98601 28.3687 -10.79 29.376 -10.79 30.4561C-10.79 31.5363 -9.98905 32.5436 -8.86037 32.5436C-8.20198 32.5436 -7.53145 32.2553 -7.19467 31.6667C-7.1795 31.6364 -7.16433 31.6061 -7.17343 31.5514C-7.18253 31.4968 -7.21894 31.4513 -7.26749 31.4301C-7.35851 31.3906 -7.43133 31.4331 -7.47987 31.4999C-7.81665 31.9792 -8.25963 32.2068 -8.86037 32.2068C-9.73722 32.2068 -10.3592 31.4513 -10.4442 30.623H-7.09151ZM-8.86037 28.6994C-7.98353 28.6994 -7.34941 29.4549 -7.27659 30.2832H-10.4442C-10.3592 29.4549 -9.73722 28.6994 -8.86037 28.6994ZM-2.68605 28.6175C-2.68605 28.5356 -2.75583 28.4506 -2.85292 28.4506H-3.74797V27.1551C-3.74797 27.0489 -3.83596 26.973 -3.94822 26.9912C-4.03014 27.0034 -4.08475 27.0792 -4.08475 27.1611V28.4506H-4.94946C-5.04352 28.4506 -5.11633 28.5325 -5.11633 28.6175C-5.11633 28.7116 -5.04655 28.7844 -4.94946 28.7844H-4.08475V32.31C-4.08475 32.3919 -4.01497 32.4768 -3.91788 32.4768C-3.82382 32.4768 -3.751 32.3949 -3.751 32.31V28.7844H-2.85292C-2.75887 28.7844 -2.68605 28.7146 -2.68605 28.6175ZM2.62964 32.2887V30.1527C2.62964 29.2425 2.0653 28.3778 1.08226 28.3778C0.484553 28.3778 -0.0312395 28.7267 -0.319476 29.2425V25.2739C-0.319476 25.192 -0.389258 25.1071 -0.486349 25.1071C-0.580405 25.1071 -0.653223 25.189 -0.653223 25.2739V32.2887C-0.653223 32.3949 -0.565233 32.4708 -0.452973 32.4526C-0.371053 32.4404 -0.316441 32.3646 -0.316441 32.2827V30.6807C-0.316441 30.6756 -0.318522 30.6545 -0.320962 30.6297C-0.324412 30.5946 -0.328577 30.5523 -0.328577 30.5381C-0.389258 29.6127 0.0537148 28.7146 1.0853 28.7146C1.88933 28.7146 2.29589 29.4337 2.29589 30.1527V32.2887C2.29589 32.3828 2.36567 32.4556 2.46276 32.4556C2.54468 32.4556 2.62964 32.3858 2.62964 32.2887ZM8.46415 30.623C8.55821 30.623 8.63709 30.5441 8.63709 30.4501C8.63406 29.3699 7.82092 28.3657 6.69529 28.3687C5.56965 28.3687 4.76562 29.376 4.76562 30.4561C4.76562 31.5363 5.56661 32.5436 6.69529 32.5436C7.35368 32.5436 8.02421 32.2553 8.36099 31.6667C8.37616 31.6364 8.39133 31.6061 8.38223 31.5514C8.37313 31.4968 8.33672 31.4513 8.28817 31.4301C8.19715 31.3906 8.12433 31.4331 8.07579 31.4999C7.73901 31.9792 7.29603 32.2068 6.69529 32.2068C5.81844 32.2068 5.19646 31.4513 5.1115 30.623H8.46415ZM6.69225 28.6994C7.5691 28.6994 8.20322 29.4549 8.27604 30.2832H5.10847C5.19343 29.4549 5.81541 28.6994 6.69225 28.6994ZM12.5965 28.7844C12.6906 28.7722 12.7513 28.7146 12.7513 28.6054C12.7513 28.5083 12.6542 28.4506 12.5723 28.4476C11.9988 28.4476 11.4466 28.8906 11.1705 29.3578V28.6145C11.1705 28.5083 11.0825 28.4324 10.9703 28.4506C10.8884 28.4628 10.8338 28.5386 10.8338 28.6205V32.2766C10.8338 32.3828 10.9217 32.4586 11.034 32.4404C11.1159 32.4283 11.1705 32.3524 11.1705 32.2705V30.6685C11.1705 29.731 11.6135 28.927 12.5965 28.7844ZM18.0821 30.623C18.1762 30.623 18.2551 30.5441 18.2551 30.4501C18.252 29.3699 17.4389 28.3657 16.3133 28.3687C15.1876 28.3687 14.3836 29.376 14.3836 30.4561C14.3836 31.5363 15.1846 32.5436 16.3133 32.5436C16.9717 32.5436 17.6422 32.2553 17.979 31.6667C17.9942 31.6364 18.0093 31.6061 18.0002 31.5514C17.9911 31.4968 17.9547 31.4513 17.9062 31.4301C17.8151 31.3906 17.7423 31.4331 17.6938 31.4999C17.357 31.9792 16.914 32.2068 16.3133 32.2068C15.4364 32.2068 14.8145 31.4513 14.7295 30.623H18.0821ZM16.3102 28.6994C17.1871 28.6994 17.8212 29.4549 17.894 30.2832H14.7265C14.8114 29.4549 15.4334 28.6994 16.3102 28.6994ZM23.6648 32.31V28.6478C23.6648 28.572 23.6163 28.5022 23.5435 28.4779C23.4251 28.4446 23.328 28.5416 23.328 28.6387V30.0071C23.328 31.1691 23.0641 32.225 21.9354 32.225C21.1314 32.225 20.7248 31.5059 20.7248 30.7869V28.6387C20.7248 28.5568 20.655 28.4719 20.5579 28.4719C20.4639 28.4719 20.3911 28.5538 20.3911 28.6387V30.7869C20.3911 31.6971 20.9433 32.5618 21.9384 32.5618C22.5635 32.5618 23.055 32.1674 23.3311 31.6152V32.31C23.3311 32.404 23.4009 32.4768 23.498 32.4768C23.5799 32.4768 23.6648 32.407 23.6648 32.31ZM32.142 32.2887V30.1406C32.142 29.2304 31.5777 28.3778 30.5977 28.3748C29.9029 28.3748 29.3628 28.8177 29.0867 29.4428C28.8713 28.8056 28.3434 28.3748 27.6607 28.3748C27.063 28.3748 26.5472 28.7116 26.259 29.2273V28.6145C26.259 28.5083 26.171 28.4324 26.0587 28.4506C25.9768 28.4628 25.9222 28.5386 25.9222 28.6205V32.2887C25.9222 32.3949 26.0102 32.4708 26.1224 32.4526C26.2043 32.4404 26.259 32.3646 26.259 32.2827V30.6685C26.2672 30.6602 26.2642 30.6349 26.2614 30.612C26.2602 30.6014 26.259 30.5913 26.259 30.5836C26.2225 29.5156 26.6412 28.7116 27.6607 28.7116C28.4647 28.7116 28.8713 29.4185 28.8713 30.1376V32.2857C28.8713 32.3797 28.9411 32.4526 29.0382 32.4526C29.1201 32.4526 29.205 32.3828 29.205 32.2857V30.6321C29.205 29.7947 29.5904 28.7146 30.5977 28.7146C31.4017 28.7146 31.8083 29.4215 31.8083 30.1406V32.2887C31.8083 32.3828 31.878 32.4556 31.9751 32.4556C32.057 32.4556 32.142 32.3858 32.142 32.2887ZM16.279 13.4591L10.675 21.3507L5.07416 13.4591L10.675 16.7662L16.279 13.4591Z" fill="#ED5B75"/>
</g>
</svg>
