<svg width="173" height="165" viewBox="0 0 173 165" fill="none" xmlns="http://www.w3.org/2000/svg">
<ellipse cx="88.2095" cy="83.5368" rx="45.9478" ry="46.7854" fill="white" fill-opacity="0.1"/>
<path d="M118.909 110.362C123.207 105.321 126.264 99.3382 127.835 92.8958C129.406 86.4534 129.447 79.731 127.955 73.2697L119.538 75.2251C120.725 80.3648 120.693 85.7122 119.443 90.8369C118.193 95.9616 115.761 100.72 112.343 104.73L118.909 110.362Z" fill="#B1D3FF"/>
<path d="M82.2222 124.946C88.796 125.665 95.4463 124.826 101.638 122.497C107.829 120.168 113.389 116.413 117.87 111.535L111.515 105.664C107.951 109.544 103.529 112.531 98.6034 114.384C93.6783 116.236 88.3882 116.904 83.1589 116.332L82.2222 124.946Z" fill="#155AB6"/>
<path d="M98.0792 123.658C106.445 121.333 113.894 116.48 119.412 109.759L112.742 104.251C108.352 109.597 102.427 113.458 95.7725 115.307L98.0792 123.658Z" fill="#00C4DF"/>
<path d="M130.261 73.1425C128.349 65.3195 124.298 58.1869 118.564 52.5474C112.83 46.9079 105.64 42.9851 97.8047 41.2206C89.9688 39.4562 81.7975 39.9199 74.2102 42.5597C66.6228 45.1995 59.9206 49.9106 54.8576 56.1629C49.7945 62.4152 46.5717 69.9605 45.5516 77.9499C44.5316 85.9393 45.7548 94.0557 49.0837 101.386C52.4126 108.716 57.715 114.969 64.3943 119.441C71.0736 123.913 78.8648 126.427 86.8911 126.699L87.3263 113.814C81.691 113.623 76.2209 111.858 71.5313 108.718C66.8418 105.578 63.119 101.188 60.7818 96.0417C58.4445 90.8953 57.5857 85.1968 58.3019 79.5875C59.0181 73.9781 61.2808 68.6805 64.8356 64.2908C68.3903 59.9011 73.096 56.5934 78.423 54.74C83.7501 52.8866 89.4872 52.561 94.9887 53.7999C100.49 55.0387 105.538 57.7929 109.564 61.7524C113.589 65.7119 116.434 70.7196 117.776 76.2121L130.261 73.1425Z" fill="#3380FF"/>
</svg>
