<svg width="14" height="16" viewBox="0 0 14 16" fill="none" xmlns="http://www.w3.org/2000/svg">
<mask id="mask0_339_152278" style="mask-type:alpha" maskUnits="userSpaceOnUse" x="0" y="0" width="14" height="16">
<rect x="0.0351562" y="0.828613" width="13.3839" height="14.9788" fill="#C4C4C4"/>
</mask>
<g mask="url(#mask0_339_152278)">
<path fill-rule="evenodd" clip-rule="evenodd" d="M10.5143 8.70241L6.78041 10.9092L3.04648 8.70241L6.78041 2.50684L10.5143 8.70241ZM-5.06459 20.8528C-5.00189 20.8528 -4.94929 20.8003 -4.94929 20.7375C-4.94929 20.0175 -5.4934 19.3479 -6.24383 19.35C-6.99426 19.35 -7.53027 20.0215 -7.53027 20.7416C-7.53027 21.4617 -6.99628 22.1332 -6.24383 22.1332C-5.8049 22.1332 -5.35788 21.9411 -5.13336 21.5487C-5.12325 21.5284 -5.11313 21.5082 -5.1192 21.4718C-5.12527 21.4354 -5.14954 21.405 -5.18191 21.3909C-5.24259 21.3646 -5.29113 21.3929 -5.3235 21.4374C-5.54802 21.757 -5.84333 21.9087 -6.24383 21.9087C-6.82839 21.9087 -7.24305 21.405 -7.29968 20.8528H-5.06459ZM-6.24383 19.5704C-5.65927 19.5704 -5.23652 20.0741 -5.18797 20.6263H-7.29968C-7.24305 20.0741 -6.82839 19.5704 -6.24383 19.5704ZM-2.12761 19.5158C-2.12761 19.4612 -2.17414 19.4046 -2.23886 19.4046H-2.83556V18.5409C-2.83556 18.4701 -2.89422 18.4195 -2.96906 18.4317C-3.02367 18.4397 -3.06008 18.4903 -3.06008 18.5449V19.4046H-3.63655C-3.69926 19.4046 -3.7478 19.4592 -3.7478 19.5158C-3.7478 19.5785 -3.70128 19.6271 -3.63655 19.6271H-3.06008V21.9775C-3.06008 22.0321 -3.01356 22.0887 -2.94883 22.0887C-2.88613 22.0887 -2.83758 22.0341 -2.83758 21.9775V19.6271H-2.23886C-2.17616 19.6271 -2.12761 19.5806 -2.12761 19.5158ZM1.41618 21.9633V20.5393C1.41618 19.9325 1.03995 19.356 0.384595 19.356C-0.0138793 19.356 -0.357741 19.5886 -0.549898 19.9325V17.2868C-0.549898 17.2322 -0.59642 17.1755 -0.661147 17.1755C-0.723851 17.1755 -0.772397 17.2302 -0.772397 17.2868V21.9633C-0.772397 22.0341 -0.713737 22.0847 -0.638896 22.0725C-0.584283 22.0645 -0.547875 22.0139 -0.547875 21.9593V20.8913C-0.547875 20.8879 -0.549263 20.8738 -0.55089 20.8573C-0.55319 20.8339 -0.555966 20.8057 -0.555966 20.7962C-0.59642 20.1793 -0.301105 19.5806 0.386617 19.5806C0.922635 19.5806 1.19368 20.0599 1.19368 20.5393V21.9633C1.19368 22.026 1.2402 22.0746 1.30493 22.0746C1.35954 22.0746 1.41618 22.028 1.41618 21.9633ZM5.30585 20.8528C5.36856 20.8528 5.42115 20.8003 5.42115 20.7375C5.41912 20.0175 4.87704 19.3479 4.12661 19.35C3.37618 19.35 2.84017 20.0215 2.84017 20.7416C2.84017 21.4617 3.37416 22.1332 4.12661 22.1332C4.56554 22.1332 5.01256 21.9411 5.23708 21.5487C5.24719 21.5284 5.25731 21.5082 5.25124 21.4718C5.24517 21.4354 5.2209 21.405 5.18853 21.3909C5.12785 21.3646 5.07931 21.3929 5.04694 21.4374C4.82242 21.757 4.52711 21.9087 4.12661 21.9087C3.54205 21.9087 3.12739 21.405 3.07076 20.8528H5.30585ZM4.12459 19.5704C4.70915 19.5704 5.1319 20.0741 5.18044 20.6263H3.06873C3.12537 20.0741 3.54002 19.5704 4.12459 19.5704ZM8.06078 19.6271C8.12349 19.619 8.16394 19.5806 8.16394 19.5077C8.16394 19.443 8.09921 19.4046 8.0446 19.4026C7.66231 19.4026 7.29418 19.6979 7.11011 20.0094V19.5138C7.11011 19.443 7.05145 19.3924 6.97661 19.4046C6.922 19.4127 6.88559 19.4632 6.88559 19.5179V21.9552C6.88559 22.026 6.94425 22.0766 7.01909 22.0644C7.0737 22.0564 7.11011 22.0058 7.11011 21.9512V20.8832C7.11011 20.2582 7.40543 19.7221 8.06078 19.6271ZM11.7178 20.8528C11.7806 20.8528 11.8331 20.8003 11.8331 20.7375C11.8311 20.0175 11.289 19.3479 10.5386 19.35C9.78818 19.35 9.25216 20.0215 9.25216 20.7416C9.25216 21.4617 9.78616 22.1332 10.5386 22.1332C10.9775 22.1332 11.4246 21.9411 11.6491 21.5487C11.6592 21.5284 11.6693 21.5082 11.6632 21.4718C11.6572 21.4354 11.6329 21.405 11.6005 21.3909C11.5398 21.3646 11.4913 21.3929 11.4589 21.4374C11.2344 21.757 10.9391 21.9087 10.5386 21.9087C9.95404 21.9087 9.53938 21.405 9.48275 20.8528H11.7178ZM10.5366 19.5704C11.1211 19.5704 11.5439 20.0741 11.5924 20.6263H9.48072C9.53736 20.0741 9.95202 19.5704 10.5366 19.5704ZM15.4396 21.9775V19.5361C15.4396 19.4855 15.4073 19.439 15.3587 19.4228C15.2798 19.4005 15.2151 19.4653 15.2151 19.53V20.4422C15.2151 21.2169 15.0391 21.9208 14.2867 21.9208C13.7507 21.9208 13.4796 21.4415 13.4796 20.9621V19.53C13.4796 19.4754 13.4331 19.4187 13.3684 19.4187C13.3057 19.4187 13.2571 19.4734 13.2571 19.53V20.9621C13.2571 21.5689 13.6253 22.1454 14.2887 22.1454C14.7054 22.1454 15.0331 21.8824 15.2171 21.5143V21.9775C15.2171 22.0402 15.2637 22.0887 15.3284 22.0887C15.383 22.0887 15.4396 22.0422 15.4396 21.9775ZM21.0911 21.9633V20.5312C21.0911 19.9244 20.7149 19.356 20.0615 19.354C19.5983 19.354 19.2383 19.6493 19.0542 20.066C18.9106 19.6412 18.5587 19.354 18.1035 19.354C17.7051 19.354 17.3612 19.5785 17.1691 19.9224V19.5138C17.1691 19.443 17.1104 19.3924 17.0356 19.4046C16.9809 19.4127 16.9445 19.4632 16.9445 19.5179V21.9633C16.9445 22.0341 17.0032 22.0847 17.078 22.0725C17.1326 22.0645 17.1691 22.0139 17.1691 21.9593V20.8832C17.1746 20.8777 17.1726 20.8608 17.1707 20.8455C17.1699 20.8384 17.1691 20.8317 17.1691 20.8265C17.1448 20.1146 17.4239 19.5785 18.1035 19.5785C18.6396 19.5785 18.9106 20.0498 18.9106 20.5292V21.9613C18.9106 22.024 18.9571 22.0725 19.0219 22.0725C19.0765 22.0725 19.1331 22.026 19.1331 21.9613V20.8589C19.1331 20.3006 19.39 19.5806 20.0615 19.5806C20.5975 19.5806 20.8686 20.0518 20.8686 20.5312V21.9633C20.8686 22.026 20.9151 22.0746 20.9798 22.0746C21.0345 22.0746 21.0911 22.028 21.0911 21.9633ZM10.5154 9.41008L6.77944 14.6712L3.04552 9.41008L6.77944 11.6148L10.5154 9.41008Z" fill="#4FDFB1"/>
</g>
</svg>
