<svg width="35" height="41" viewBox="0 0 35 41" fill="none" xmlns="http://www.w3.org/2000/svg">
<path d="M9.78271 16.1953H18.3914" stroke="#8295B2" stroke-width="1.5" stroke-linecap="round" stroke-linejoin="round"/>
<path fill-rule="evenodd" clip-rule="evenodd" d="M22.913 17.7607H25V19.326H23.6957V20.1086C23.6957 20.5408 23.3453 20.8912 22.913 20.8912C22.4808 20.8912 22.1304 20.5408 22.1304 20.1086V19.326H21.7391C21.0908 19.326 20.5652 19.8515 20.5652 20.4999C20.5652 21.1482 21.0908 21.6738 21.7391 21.6738H25V23.239H21.7391C20.2264 23.239 19 22.0127 19 20.4999C19 18.9871 20.2264 17.7607 21.7391 17.7607H22.913Z" fill="#8295B2"/>
<path d="M15 12.25H20.2174C23.1169 12.25 25.4674 14.6005 25.4674 17.5V23.5C25.4674 26.3995 23.1169 28.75 20.2174 28.75H15C12.1005 28.75 9.75 26.3995 9.75 23.5V17.5C9.75 14.6005 12.1005 12.25 15 12.25Z" stroke="#8295B2" stroke-width="1.5"/>
</svg>
