<svg width="19" height="18" viewBox="0 0 19 18" fill="none" xmlns="http://www.w3.org/2000/svg">
<path d="M6.85413 4.5C6.85413 4.35082 6.91339 4.20774 7.01888 4.10225C7.12437 3.99676 7.26744 3.9375 7.41663 3.9375H15.8541C16.0033 3.9375 16.1464 3.99676 16.2519 4.10225C16.3574 4.20774 16.4166 4.35082 16.4166 4.5C16.4166 4.64918 16.3574 4.79226 16.2519 4.89775C16.1464 5.00324 16.0033 5.0625 15.8541 5.0625H7.41663C7.26744 5.0625 7.12437 5.00324 7.01888 4.89775C6.91339 4.79226 6.85413 4.64918 6.85413 4.5ZM15.8541 8.4375H7.41663C7.26744 8.4375 7.12437 8.49676 7.01888 8.60225C6.91339 8.70774 6.85413 8.85082 6.85413 9C6.85413 9.14918 6.91339 9.29226 7.01888 9.39775C7.12437 9.50324 7.26744 9.5625 7.41663 9.5625H15.8541C16.0033 9.5625 16.1464 9.50324 16.2519 9.39775C16.3574 9.29226 16.4166 9.14918 16.4166 9C16.4166 8.85082 16.3574 8.70774 16.2519 8.60225C16.1464 8.49676 16.0033 8.4375 15.8541 8.4375ZM15.8541 12.9375H7.41663C7.26744 12.9375 7.12437 12.9968 7.01888 13.1023C6.91339 13.2077 6.85413 13.3508 6.85413 13.5C6.85413 13.6492 6.91339 13.7923 7.01888 13.8977C7.12437 14.0032 7.26744 14.0625 7.41663 14.0625H15.8541C16.0033 14.0625 16.1464 14.0032 16.2519 13.8977C16.3574 13.7923 16.4166 13.6492 16.4166 13.5C16.4166 13.3508 16.3574 13.2077 16.2519 13.1023C16.1464 12.9968 16.0033 12.9375 15.8541 12.9375ZM4.60413 3.9375H3.47913C3.32994 3.9375 3.18687 3.99676 3.08138 4.10225C2.97589 4.20774 2.91663 4.35082 2.91663 4.5C2.91663 4.64918 2.97589 4.79226 3.08138 4.89775C3.18687 5.00324 3.32994 5.0625 3.47913 5.0625H4.60413C4.75331 5.0625 4.89638 5.00324 5.00187 4.89775C5.10736 4.79226 5.16663 4.64918 5.16663 4.5C5.16663 4.35082 5.10736 4.20774 5.00187 4.10225C4.89638 3.99676 4.75331 3.9375 4.60413 3.9375ZM4.60413 8.4375H3.47913C3.32994 8.4375 3.18687 8.49676 3.08138 8.60225C2.97589 8.70774 2.91663 8.85082 2.91663 9C2.91663 9.14918 2.97589 9.29226 3.08138 9.39775C3.18687 9.50324 3.32994 9.5625 3.47913 9.5625H4.60413C4.75331 9.5625 4.89638 9.50324 5.00187 9.39775C5.10736 9.29226 5.16663 9.14918 5.16663 9C5.16663 8.85082 5.10736 8.70774 5.00187 8.60225C4.89638 8.49676 4.75331 8.4375 4.60413 8.4375ZM4.60413 12.9375H3.47913C3.32994 12.9375 3.18687 12.9968 3.08138 13.1023C2.97589 13.2077 2.91663 13.3508 2.91663 13.5C2.91663 13.6492 2.97589 13.7923 3.08138 13.8977C3.18687 14.0032 3.32994 14.0625 3.47913 14.0625H4.60413C4.75331 14.0625 4.89638 14.0032 5.00187 13.8977C5.10736 13.7923 5.16663 13.6492 5.16663 13.5C5.16663 13.3508 5.10736 13.2077 5.00187 13.1023C4.89638 12.9968 4.75331 12.9375 4.60413 12.9375Z" fill="#7D8088"/>
</svg>
