<svg width="19" height="18" viewBox="0 0 19 18" fill="none" xmlns="http://www.w3.org/2000/svg">
<path d="M7.64575 2.25H4.83325C4.53488 2.25 4.24874 2.36853 4.03776 2.5795C3.82678 2.79048 3.70825 3.07663 3.70825 3.375V14.625C3.70825 14.9234 3.82678 15.2095 4.03776 15.4205C4.24874 15.6315 4.53488 15.75 4.83325 15.75H7.64575C7.94412 15.75 8.23027 15.6315 8.44125 15.4205C8.65223 15.2095 8.77075 14.9234 8.77075 14.625V3.375C8.77075 3.07663 8.65223 2.79048 8.44125 2.5795C8.23027 2.36853 7.94412 2.25 7.64575 2.25ZM7.64575 14.625H4.83325V3.375H7.64575V14.625ZM13.8333 2.25H11.0208C10.7224 2.25 10.4362 2.36853 10.2253 2.5795C10.0143 2.79048 9.89575 3.07663 9.89575 3.375V14.625C9.89575 14.9234 10.0143 15.2095 10.2253 15.4205C10.4362 15.6315 10.7224 15.75 11.0208 15.75H13.8333C14.1316 15.75 14.4178 15.6315 14.6287 15.4205C14.8397 15.2095 14.9583 14.9234 14.9583 14.625V3.375C14.9583 3.07663 14.8397 2.79048 14.6287 2.5795C14.4178 2.36853 14.1316 2.25 13.8333 2.25ZM13.8333 14.625H11.0208V3.375H13.8333V14.625Z" fill="#7D8088"/>
</svg>
