<svg width="20" height="20" viewBox="0 0 20 20" fill="none" xmlns="http://www.w3.org/2000/svg">
<path fill-rule="evenodd" clip-rule="evenodd" d="M5.1983 13.5393H14.9961C15.3329 13.5393 15.6084 13.2638 15.6084 12.927C15.6084 12.5902 15.3329 12.3146 14.9961 12.3146H5.1983C4.8615 12.3146 4.58594 12.5902 4.58594 12.927C4.58594 13.2638 4.8615 13.5393 5.1983 13.5393ZM5.1983 10.4775H14.9961C15.3329 10.4775 15.6084 10.202 15.6084 9.86516C15.6084 9.52836 15.3329 9.2528 14.9961 9.2528H5.1983C4.8615 9.2528 4.58594 9.52836 4.58594 9.86516C4.58594 10.202 4.8615 10.4775 5.1983 10.4775ZM4.58603 6.80328C4.58603 7.14008 4.86159 7.41564 5.19839 7.41564H14.9961C15.3329 7.41564 15.6085 7.14008 15.6085 6.80328C15.6085 6.46648 15.3329 6.19092 14.9961 6.19092H5.19839C4.86159 6.19092 4.58603 6.46648 4.58603 6.80328Z" fill="#C3CAD9"/>
</svg>
