<svg width="21" height="21" viewBox="0 0 21 21" fill="none" xmlns="http://www.w3.org/2000/svg">
<rect width="19.8405" height="19.8405" transform="matrix(-1 0 0 1 20.3701 0.695801)" fill="black"/>
<path d="M12.8346 7.88446C12.6523 7.71497 12.6523 7.44017 12.8346 7.27067C13.0169 7.10118 13.3125 7.10118 13.4948 7.27067L16.7627 10.3087C16.945 10.4782 16.945 10.753 16.7627 10.9225L13.4948 13.9606C13.3125 14.1301 13.0169 14.1301 12.8346 13.9606C12.6523 13.7911 12.6523 13.5163 12.8346 13.3468L15.3055 11.0496L5.00494 11.0496C4.74712 11.0496 4.53811 10.8553 4.53811 10.6156C4.53811 10.3759 4.74712 10.1816 5.00494 10.1816L15.3055 10.1816L12.8346 7.88446Z" fill="#F9FAFB"/>
</svg>
