<svg width="32" height="31" viewBox="0 0 32 31" fill="none" xmlns="http://www.w3.org/2000/svg">
<path fill-rule="evenodd" clip-rule="evenodd" d="M20.4661 10.2034L21.9358 11.6731L16.9553 16.6536L13.5975 13.2959C13.4068 13.1048 13.1479 12.9974 12.878 12.9974C12.608 12.9974 12.3491 13.1048 12.1585 13.2959L6.03485 19.4297C5.63682 19.8277 5.63682 20.4707 6.03485 20.8687C6.43289 21.2668 7.07587 21.2668 7.4739 20.8687L12.8729 15.4595L16.2306 18.8173C16.6287 19.2153 17.2717 19.2153 17.6697 18.8173L23.3749 13.1224L24.8445 14.592C25.1609 14.9084 25.712 14.6839 25.712 14.2348V9.84624C25.7222 9.56047 25.4977 9.33594 25.2119 9.33594H20.8336C20.3743 9.33594 20.1498 9.88706 20.4661 10.2034V10.2034Z" fill="#C3CAD9"/>
</svg>
