<svg width="32" height="32" viewBox="0 0 32 32" fill="none" xmlns="http://www.w3.org/2000/svg">
<path fill-rule="evenodd" clip-rule="evenodd" d="M15.9433 5.94336C10.3096 5.94336 5.7373 10.5156 5.7373 16.1494C5.7373 21.7831 10.3096 26.3554 15.9433 26.3554C21.577 26.3554 26.1493 21.7831 26.1493 16.1494C26.1493 10.5156 21.577 5.94336 15.9433 5.94336ZM20.0257 17.17H16.9639V20.2318C16.9639 20.7931 16.5046 21.2524 15.9433 21.2524C15.382 21.2524 14.9227 20.7931 14.9227 20.2318V17.17H11.8609C11.2996 17.17 10.8403 16.7107 10.8403 16.1494C10.8403 15.588 11.2996 15.1288 11.8609 15.1288H14.9227V12.067C14.9227 11.5056 15.382 11.0464 15.9433 11.0464C16.5046 11.0464 16.9639 11.5056 16.9639 12.067V15.1288H20.0257C20.587 15.1288 21.0463 15.588 21.0463 16.1494C21.0463 16.7107 20.587 17.17 20.0257 17.17Z" fill="#C3CAD9"/>
</svg>
