<svg width="19" height="19" viewBox="0 0 19 19" fill="none" xmlns="http://www.w3.org/2000/svg">
<g clip-path="url(#clip0_339_152079)">
<rect x="0.869141" y="0.774902" width="17.636" height="17.636" rx="8.81798" fill="url(#paint0_linear_339_152079)"/>
<g filter="url(#filter0_d_339_152079)">
<path d="M6.25781 10.4126L9.58631 15.1815V12.4371L6.25781 10.4126Z" fill="white"/>
<path d="M9.58594 15.2265L12.8709 10.4126L9.58594 12.4596V15.2265Z" fill="#DFFFDA"/>
<path d="M9.56445 8.99121V11.7266L11.5485 10.176L9.56445 8.99121Z" fill="#DFFFDA"/>
<path d="M9.56455 4.20361V8.25268L6.25781 9.82731L9.56455 4.20361Z" fill="white"/>
<path d="M12.8712 9.78232L9.56445 8.25268V4.20361L12.8712 9.78232Z" fill="#DFFFDA"/>
<path d="M7.58105 10.2103L9.5651 11.7261L9.55213 8.99072L7.58105 10.2103Z" fill="white"/>
</g>
</g>
<defs>
<filter id="filter0_d_339_152079" x="4.05332" y="2.55024" width="13.2268" height="17.6364" filterUnits="userSpaceOnUse" color-interpolation-filters="sRGB">
<feFlood flood-opacity="0" result="BackgroundImageFix"/>
<feColorMatrix in="SourceAlpha" type="matrix" values="0 0 0 0 0 0 0 0 0 0 0 0 0 0 0 0 0 0 127 0" result="hardAlpha"/>
<feOffset dx="1.10225" dy="1.65337"/>
<feGaussianBlur stdDeviation="1.65337"/>
<feComposite in2="hardAlpha" operator="out"/>
<feColorMatrix type="matrix" values="0 0 0 0 0.0748611 0 0 0 0 0.366667 0 0 0 0 0.11357 0 0 0 1 0"/>
<feBlend mode="normal" in2="BackgroundImageFix" result="effect1_dropShadow_339_152079"/>
<feBlend mode="normal" in="SourceGraphic" in2="effect1_dropShadow_339_152079" result="shape"/>
</filter>
<linearGradient id="paint0_linear_339_152079" x1="9.68713" y1="1.87715" x2="20.0306" y2="20.6871" gradientUnits="userSpaceOnUse">
<stop stop-color="#1CAC70"/>
<stop offset="1" stop-color="#EDDC46"/>
</linearGradient>
<clipPath id="clip0_339_152079">
<rect x="0.869141" y="0.774902" width="17.636" height="17.636" rx="8.81798" fill="white"/>
</clipPath>
</defs>
</svg>
