<svg width="19" height="20" viewBox="0 0 19 20" fill="none" xmlns="http://www.w3.org/2000/svg">
<path fill-rule="evenodd" clip-rule="evenodd" d="M9.48085 15.6626C10.1544 15.6626 10.7056 15.1114 10.7056 14.4378H8.25613C8.25613 15.1114 8.80113 15.6626 9.48085 15.6626ZM13.1548 11.9885V8.92674C13.1548 7.0468 12.1505 5.47303 10.3992 5.05662V4.64022C10.3992 4.13196 9.98888 3.72168 9.48062 3.72168C8.97236 3.72168 8.56208 4.13196 8.56208 4.64022V5.05662C6.8046 5.47303 5.80646 7.04067 5.80646 8.92674V11.9885L5.01651 12.7785C4.63072 13.1643 4.90016 13.8256 5.44516 13.8256H13.5099C14.0549 13.8256 14.3305 13.1643 13.9447 12.7785L13.1548 11.9885Z" fill="#C3CAD9"/>
</svg>
