<svg width="32" height="32" viewBox="0 0 32 32" fill="none" xmlns="http://www.w3.org/2000/svg">
<path fill-rule="evenodd" clip-rule="evenodd" d="M19.004 15.4751V10.1986C19.004 9.65769 18.7897 9.13718 18.4019 8.75956L16.6567 7.01433C16.466 6.82322 16.2071 6.71582 15.9371 6.71582C15.6672 6.71582 15.4083 6.82322 15.2176 7.01433L13.4826 8.74935C13.0948 9.13718 12.8804 9.65769 12.8804 10.1986V11.3927H8.79804C7.67538 11.3927 6.75684 12.3112 6.75684 13.4339V23.6399C6.75684 24.7626 7.67538 25.6811 8.79804 25.6811H23.0864C24.2091 25.6811 25.1276 24.7626 25.1276 23.6399V17.5163C25.1276 16.3936 24.2091 15.4751 23.0864 15.4751H19.004ZM10.8392 23.6399H8.79804V21.5987H10.8392V23.6399ZM10.8392 19.5575H8.79804V17.5163H10.8392V19.5575ZM10.8392 15.4751H8.79804V13.4339H10.8392V15.4751ZM16.9628 23.6399H14.9216V21.5987H16.9628V23.6399ZM16.9628 19.5575H14.9216V17.5163H16.9628V19.5575ZM16.9628 15.4751H14.9216V13.4339H16.9628V15.4751ZM16.9628 11.3927H14.9216V9.35154H16.9628V11.3927ZM23.0864 23.6399H21.0452V21.5987H23.0864V23.6399ZM23.0864 19.5575H21.0452V17.5163H23.0864V19.5575Z" fill="#C3CAD9"/>
</svg>
