<svg width="19" height="20" viewBox="0 0 19 20" fill="none" xmlns="http://www.w3.org/2000/svg">
<path fill-rule="evenodd" clip-rule="evenodd" d="M11.6285 11.0903H11.1448L10.9733 10.925C11.7081 10.0677 12.0878 8.8981 11.8796 7.65501C11.5918 5.95265 10.1711 4.59321 8.45649 4.38501C5.86621 4.06658 3.68621 6.24658 4.00463 8.83686C4.21284 10.5515 5.57228 11.9721 7.27464 12.26C8.51773 12.4682 9.68734 12.0885 10.5446 11.3537L10.71 11.5251V12.0089L13.3125 14.6114C13.5636 14.8625 13.9739 14.8625 14.2249 14.6114C14.476 14.3604 14.476 13.9501 14.2249 13.699L11.6285 11.0903ZM7.95457 11.0903C6.4298 11.0903 5.19895 9.85942 5.19895 8.33464C5.19895 6.80987 6.4298 5.57902 7.95457 5.57902C9.47935 5.57902 10.7102 6.80987 10.7102 8.33464C10.7102 9.85942 9.47935 11.0903 7.95457 11.0903Z" fill="#C3CAD9"/>
</svg>
