<svg width="32" height="31" viewBox="0 0 32 31" fill="none" xmlns="http://www.w3.org/2000/svg">
<path fill-rule="evenodd" clip-rule="evenodd" d="M15.9437 14.4524C15.3211 14.4524 14.821 14.9525 14.821 15.575C14.821 16.1976 15.3211 16.6977 15.9437 16.6977C16.5663 16.6977 17.0664 16.1976 17.0664 15.575C17.0664 14.9525 16.5663 14.4524 15.9437 14.4524ZM15.9433 5.36914C10.3096 5.36914 5.7373 9.94143 5.7373 15.5751C5.7373 21.2089 10.3096 25.7811 15.9433 25.7811C21.577 25.7811 26.1493 21.2089 26.1493 15.5751C26.1493 9.94143 21.577 5.36914 15.9433 5.36914ZM18.1784 17.8103L9.81971 21.6987L13.7082 13.34L22.0669 9.45154L18.1784 17.8103Z" fill="#3361FF"/>
</svg>
