<svg width="42" height="43" viewBox="0 0 42 43" fill="none" xmlns="http://www.w3.org/2000/svg">
<circle cx="21" cy="21.3799" r="21" fill="black"/>
<path d="M29.3334 20.5209V22.2375C29.3334 22.6959 28.9667 23.0709 28.5 23.0875H26.8667C25.9667 23.0875 25.1417 22.4292 25.0667 21.5292C25.0167 21.0042 25.2167 20.5125 25.5667 20.1709C25.875 19.8542 26.3 19.6709 26.7667 19.6709H28.5C28.9667 19.6876 29.3334 20.0625 29.3334 20.5209Z" fill="#C8EE44"/>
<path d="M28.0582 24.3385H26.8665C25.2832 24.3385 23.9498 23.1469 23.8165 21.6302C23.7415 20.7635 24.0582 19.8969 24.6915 19.2802C25.2248 18.7302 25.9665 18.4219 26.7665 18.4219H28.0582C28.2998 18.4219 28.4998 18.2219 28.4748 17.9802C28.2915 15.9552 26.9498 14.5719 24.9582 14.3385C24.7582 14.3052 24.5498 14.2969 24.3332 14.2969H16.8332C16.5998 14.2969 16.3748 14.3135 16.1582 14.3469C14.0332 14.6135 12.6665 16.1969 12.6665 18.4635V24.2969C12.6665 26.5969 14.5332 28.4635 16.8332 28.4635H24.3332C26.6665 28.4635 28.2748 27.0052 28.4748 24.7802C28.4998 24.5385 28.2998 24.3385 28.0582 24.3385ZM21.8332 19.5052H16.8332C16.4915 19.5052 16.2082 19.2219 16.2082 18.8802C16.2082 18.5385 16.4915 18.2552 16.8332 18.2552H21.8332C22.1748 18.2552 22.4582 18.5385 22.4582 18.8802C22.4582 19.2219 22.1748 19.5052 21.8332 19.5052Z" fill="#C8EE44"/>
</svg>
