<svg width="14" height="14" viewBox="0 0 14 14" fill="none" xmlns="http://www.w3.org/2000/svg">
<rect width="13.227" height="13.227" transform="matrix(-1 0 0 1 13.2422 0.478516)" fill="black"/>
<path d="M8.21886 5.27079C8.09732 5.1578 8.09732 4.9746 8.21886 4.8616C8.3404 4.74861 8.53745 4.74861 8.65899 4.8616L10.8376 6.88698C10.9591 6.99998 10.9591 7.18318 10.8376 7.29617L8.65899 9.32155C8.53745 9.43455 8.3404 9.43455 8.21886 9.32155C8.09732 9.20856 8.09732 9.02536 8.21886 8.91237L9.86613 7.38092L2.99906 7.38092C2.82718 7.38092 2.68784 7.25138 2.68784 7.09158C2.68784 6.93178 2.82718 6.80224 2.99906 6.80224L9.86613 6.80224L8.21886 5.27079Z" fill="#F9FAFB"/>
</svg>
