<svg width="19" height="19" viewBox="0 0 19 19" fill="none" xmlns="http://www.w3.org/2000/svg">
<path d="M16.0833 9.09119C16.0833 9.24038 16.0241 9.38345 15.9186 9.48894C15.8131 9.59443 15.67 9.65369 15.5208 9.65369H9.33332C9.18414 9.65369 9.04106 9.59443 8.93557 9.48894C8.83008 9.38345 8.77082 9.24038 8.77082 9.09119C8.77082 8.94201 8.83008 8.79894 8.93557 8.69345C9.04106 8.58796 9.18414 8.52869 9.33332 8.52869H15.5208C15.67 8.52869 15.8131 8.58796 15.9186 8.69345C16.0241 8.79894 16.0833 8.94201 16.0833 9.09119ZM9.33332 5.15369H15.5208C15.67 5.15369 15.8131 5.09443 15.9186 4.98894C16.0241 4.88345 16.0833 4.74038 16.0833 4.59119C16.0833 4.44201 16.0241 4.29894 15.9186 4.19345C15.8131 4.08796 15.67 4.02869 15.5208 4.02869H9.33332C9.18414 4.02869 9.04106 4.08796 8.93557 4.19345C8.83008 4.29894 8.77082 4.44201 8.77082 4.59119C8.77082 4.74038 8.83008 4.88345 8.93557 4.98894C9.04106 5.09443 9.18414 5.15369 9.33332 5.15369ZM15.5208 13.0287H9.33332C9.18414 13.0287 9.04106 13.088 8.93557 13.1934C8.83008 13.2989 8.77082 13.442 8.77082 13.5912C8.77082 13.7404 8.83008 13.8835 8.93557 13.9889C9.04106 14.0944 9.18414 14.1537 9.33332 14.1537H15.5208C15.67 14.1537 15.8131 14.0944 15.9186 13.9889C16.0241 13.8835 16.0833 13.7404 16.0833 13.5912C16.0833 13.442 16.0241 13.2989 15.9186 13.1934C15.8131 13.088 15.67 13.0287 15.5208 13.0287ZM6.12285 3.06823L4.27082 4.92096L3.54379 4.19323C3.43824 4.08768 3.29509 4.02838 3.14582 4.02838C2.99655 4.02838 2.8534 4.08768 2.74785 4.19323C2.6423 4.29877 2.58301 4.44193 2.58301 4.59119C2.58301 4.74046 2.6423 4.88362 2.74785 4.98916L3.87285 6.11416C3.92509 6.16646 3.98713 6.20795 4.05542 6.23626C4.1237 6.26457 4.1969 6.27914 4.27082 6.27914C4.34474 6.27914 4.41794 6.26457 4.48622 6.23626C4.55451 6.20795 4.61655 6.16646 4.66879 6.11416L6.91879 3.86416C7.02434 3.75861 7.08363 3.61546 7.08363 3.46619C7.08363 3.31693 7.02434 3.17377 6.91879 3.06823C6.81324 2.96268 6.67009 2.90338 6.52082 2.90338C6.37155 2.90338 6.2284 2.96268 6.12285 3.06823ZM6.12285 7.56823L4.27082 9.42096L3.54379 8.69323C3.43824 8.58768 3.29509 8.52838 3.14582 8.52838C2.99655 8.52838 2.8534 8.58768 2.74785 8.69323C2.6423 8.79877 2.58301 8.94193 2.58301 9.09119C2.58301 9.1651 2.59757 9.23829 2.62585 9.30657C2.65413 9.37486 2.69559 9.4369 2.74785 9.48916L3.87285 10.6142C3.92509 10.6665 3.98713 10.708 4.05542 10.7363C4.1237 10.7646 4.1969 10.7791 4.27082 10.7791C4.34474 10.7791 4.41794 10.7646 4.48622 10.7363C4.55451 10.708 4.61655 10.6665 4.66879 10.6142L6.91879 8.36416C7.02434 8.25862 7.08363 8.11546 7.08363 7.96619C7.08363 7.81693 7.02434 7.67377 6.91879 7.56823C6.81324 7.46268 6.67009 7.40338 6.52082 7.40338C6.37155 7.40338 6.2284 7.46268 6.12285 7.56823ZM6.12285 12.0682L4.27082 13.921L3.54379 13.1932C3.49153 13.141 3.42948 13.0995 3.3612 13.0712C3.29292 13.0429 3.21973 13.0284 3.14582 13.0284C3.07191 13.0284 2.99872 13.0429 2.93044 13.0712C2.86216 13.0995 2.80011 13.141 2.74785 13.1932C2.69559 13.2455 2.65413 13.3075 2.62585 13.3758C2.59757 13.4441 2.58301 13.5173 2.58301 13.5912C2.58301 13.6651 2.59757 13.7383 2.62585 13.8066C2.65413 13.8749 2.69559 13.9369 2.74785 13.9892L3.87285 15.1142C3.92509 15.1665 3.98713 15.208 4.05542 15.2363C4.1237 15.2646 4.1969 15.2791 4.27082 15.2791C4.34474 15.2791 4.41794 15.2646 4.48622 15.2363C4.55451 15.208 4.61655 15.1665 4.66879 15.1142L6.91879 12.8642C7.02434 12.7586 7.08363 12.6155 7.08363 12.4662C7.08363 12.3169 7.02434 12.1738 6.91879 12.0682C6.81324 11.9627 6.67009 11.9034 6.52082 11.9034C6.37155 11.9034 6.2284 11.9627 6.12285 12.0682Z" fill="#B8B9BD"/>
</svg>
