<svg width="18" height="19" viewBox="0 0 18 19" fill="none" xmlns="http://www.w3.org/2000/svg">
<path d="M15.7501 9.09119C15.7501 9.24038 15.6908 9.38345 15.5853 9.48894C15.4798 9.59443 15.3368 9.65369 15.1876 9.65369H9.00007C8.85088 9.65369 8.70781 9.59443 8.60232 9.48894C8.49683 9.38345 8.43757 9.24038 8.43757 9.09119C8.43757 8.94201 8.49683 8.79894 8.60232 8.69345C8.70781 8.58796 8.85088 8.52869 9.00007 8.52869H15.1876C15.3368 8.52869 15.4798 8.58796 15.5853 8.69345C15.6908 8.79894 15.7501 8.94201 15.7501 9.09119ZM9.00007 5.15369H15.1876C15.3368 5.15369 15.4798 5.09443 15.5853 4.98894C15.6908 4.88345 15.7501 4.74038 15.7501 4.59119C15.7501 4.44201 15.6908 4.29894 15.5853 4.19345C15.4798 4.08796 15.3368 4.02869 15.1876 4.02869H9.00007C8.85088 4.02869 8.70781 4.08796 8.60232 4.19345C8.49683 4.29894 8.43757 4.44201 8.43757 4.59119C8.43757 4.74038 8.49683 4.88345 8.60232 4.98894C8.70781 5.09443 8.85088 5.15369 9.00007 5.15369ZM15.1876 13.0287H9.00007C8.85088 13.0287 8.70781 13.088 8.60232 13.1934C8.49683 13.2989 8.43757 13.442 8.43757 13.5912C8.43757 13.7404 8.49683 13.8835 8.60232 13.9889C8.70781 14.0944 8.85088 14.1537 9.00007 14.1537H15.1876C15.3368 14.1537 15.4798 14.0944 15.5853 13.9889C15.6908 13.8835 15.7501 13.7404 15.7501 13.5912C15.7501 13.442 15.6908 13.2989 15.5853 13.1934C15.4798 13.088 15.3368 13.0287 15.1876 13.0287ZM5.7896 3.06823L3.93757 4.92096L3.21054 4.19323C3.10499 4.08768 2.96184 4.02838 2.81257 4.02838C2.6633 4.02838 2.52015 4.08768 2.4146 4.19323C2.30905 4.29877 2.24976 4.44193 2.24976 4.59119C2.24976 4.74046 2.30905 4.88362 2.4146 4.98916L3.5396 6.11416C3.59184 6.16646 3.65388 6.20795 3.72216 6.23626C3.79045 6.26457 3.86365 6.27914 3.93757 6.27914C4.01149 6.27914 4.08469 6.26457 4.15297 6.23626C4.22126 6.20795 4.2833 6.16646 4.33554 6.11416L6.58554 3.86416C6.69109 3.75861 6.75038 3.61546 6.75038 3.46619C6.75038 3.31693 6.69109 3.17377 6.58554 3.06823C6.47999 2.96268 6.33684 2.90338 6.18757 2.90338C6.0383 2.90338 5.89515 2.96268 5.7896 3.06823ZM5.7896 7.56823L3.93757 9.42096L3.21054 8.69323C3.10499 8.58768 2.96184 8.52838 2.81257 8.52838C2.6633 8.52838 2.52015 8.58768 2.4146 8.69323C2.30905 8.79877 2.24976 8.94193 2.24976 9.09119C2.24976 9.1651 2.26431 9.23829 2.2926 9.30657C2.32088 9.37486 2.36234 9.4369 2.4146 9.48916L3.5396 10.6142C3.59184 10.6665 3.65388 10.708 3.72216 10.7363C3.79045 10.7646 3.86365 10.7791 3.93757 10.7791C4.01149 10.7791 4.08469 10.7646 4.15297 10.7363C4.22126 10.708 4.2833 10.6665 4.33554 10.6142L6.58554 8.36416C6.69109 8.25862 6.75038 8.11546 6.75038 7.96619C6.75038 7.81693 6.69109 7.67377 6.58554 7.56823C6.47999 7.46268 6.33684 7.40338 6.18757 7.40338C6.0383 7.40338 5.89515 7.46268 5.7896 7.56823ZM5.7896 12.0682L3.93757 13.921L3.21054 13.1932C3.15828 13.141 3.09623 13.0995 3.02795 13.0712C2.95966 13.0429 2.88648 13.0284 2.81257 13.0284C2.73866 13.0284 2.66547 13.0429 2.59719 13.0712C2.52891 13.0995 2.46686 13.141 2.4146 13.1932C2.36234 13.2455 2.32088 13.3075 2.2926 13.3758C2.26431 13.4441 2.24976 13.5173 2.24976 13.5912C2.24976 13.6651 2.26431 13.7383 2.2926 13.8066C2.32088 13.8749 2.36234 13.9369 2.4146 13.9892L3.5396 15.1142C3.59184 15.1665 3.65388 15.208 3.72216 15.2363C3.79045 15.2646 3.86365 15.2791 3.93757 15.2791C4.01149 15.2791 4.08469 15.2646 4.15297 15.2363C4.22126 15.208 4.2833 15.1665 4.33554 15.1142L6.58554 12.8642C6.69109 12.7586 6.75038 12.6155 6.75038 12.4662C6.75038 12.3169 6.69109 12.1738 6.58554 12.0682C6.47999 11.9627 6.33684 11.9034 6.18757 11.9034C6.0383 11.9034 5.89515 11.9627 5.7896 12.0682Z" fill="#B8B9BD"/>
</svg>
