<svg width="19" height="19" viewBox="0 0 19 19" fill="none" xmlns="http://www.w3.org/2000/svg">
<path d="M16.0833 9.77124C16.0833 9.92042 16.0241 10.0635 15.9186 10.169C15.8131 10.2745 15.67 10.3337 15.5208 10.3337H9.33332C9.18414 10.3337 9.04106 10.2745 8.93557 10.169C8.83008 10.0635 8.77082 9.92042 8.77082 9.77124C8.77082 9.62206 8.83008 9.47898 8.93557 9.37349C9.04106 9.268 9.18414 9.20874 9.33332 9.20874H15.5208C15.67 9.20874 15.8131 9.268 15.9186 9.37349C16.0241 9.47898 16.0833 9.62206 16.0833 9.77124ZM9.33332 5.83374H15.5208C15.67 5.83374 15.8131 5.77448 15.9186 5.66899C16.0241 5.5635 16.0833 5.42042 16.0833 5.27124C16.0833 5.12206 16.0241 4.97898 15.9186 4.87349C15.8131 4.768 15.67 4.70874 15.5208 4.70874H9.33332C9.18414 4.70874 9.04106 4.768 8.93557 4.87349C8.83008 4.97898 8.77082 5.12206 8.77082 5.27124C8.77082 5.42042 8.83008 5.5635 8.93557 5.66899C9.04106 5.77448 9.18414 5.83374 9.33332 5.83374ZM15.5208 13.7087H9.33332C9.18414 13.7087 9.04106 13.768 8.93557 13.8735C8.83008 13.979 8.77082 14.1221 8.77082 14.2712C8.77082 14.4204 8.83008 14.5635 8.93557 14.669C9.04106 14.7745 9.18414 14.8337 9.33332 14.8337H15.5208C15.67 14.8337 15.8131 14.7745 15.9186 14.669C16.0241 14.5635 16.0833 14.4204 16.0833 14.2712C16.0833 14.1221 16.0241 13.979 15.9186 13.8735C15.8131 13.768 15.67 13.7087 15.5208 13.7087ZM6.12285 3.74827L4.27082 5.60101L3.54379 4.87327C3.43824 4.76772 3.29509 4.70843 3.14582 4.70843C2.99655 4.70843 2.8534 4.76772 2.74785 4.87327C2.6423 4.97882 2.58301 5.12197 2.58301 5.27124C2.58301 5.42051 2.6423 5.56366 2.74785 5.66921L3.87285 6.79421C3.92509 6.84651 3.98713 6.888 4.05542 6.9163C4.1237 6.94461 4.1969 6.95918 4.27082 6.95918C4.34474 6.95918 4.41794 6.94461 4.48622 6.9163C4.55451 6.888 4.61655 6.84651 4.66879 6.79421L6.91879 4.54421C7.02434 4.43866 7.08363 4.29551 7.08363 4.14624C7.08363 3.99697 7.02434 3.85382 6.91879 3.74827C6.81324 3.64272 6.67009 3.58343 6.52082 3.58343C6.37155 3.58343 6.2284 3.64272 6.12285 3.74827ZM6.12285 8.24827L4.27082 10.101L3.54379 9.37327C3.43824 9.26772 3.29509 9.20843 3.14582 9.20843C2.99655 9.20843 2.8534 9.26772 2.74785 9.37327C2.6423 9.47882 2.58301 9.62197 2.58301 9.77124C2.58301 9.84515 2.59757 9.91834 2.62585 9.98662C2.65413 10.0549 2.69559 10.1169 2.74785 10.1692L3.87285 11.2942C3.92509 11.3465 3.98713 11.388 4.05542 11.4163C4.1237 11.4446 4.1969 11.4592 4.27082 11.4592C4.34474 11.4592 4.41794 11.4446 4.48622 11.4163C4.55451 11.388 4.61655 11.3465 4.66879 11.2942L6.91879 9.04421C7.02434 8.93866 7.08363 8.79551 7.08363 8.64624C7.08363 8.49697 7.02434 8.35382 6.91879 8.24827C6.81324 8.14272 6.67009 8.08343 6.52082 8.08343C6.37155 8.08343 6.2284 8.14272 6.12285 8.24827ZM6.12285 12.7483L4.27082 14.601L3.54379 13.8733C3.49153 13.821 3.42948 13.7796 3.3612 13.7513C3.29292 13.723 3.21973 13.7084 3.14582 13.7084C3.07191 13.7084 2.99872 13.723 2.93044 13.7513C2.86216 13.7796 2.80011 13.821 2.74785 13.8733C2.69559 13.9255 2.65413 13.9876 2.62585 14.0559C2.59757 14.1241 2.58301 14.1973 2.58301 14.2712C2.58301 14.3452 2.59757 14.4183 2.62585 14.4866C2.65413 14.5549 2.69559 14.6169 2.74785 14.6692L3.87285 15.7942C3.92509 15.8465 3.98713 15.888 4.05542 15.9163C4.1237 15.9446 4.1969 15.9592 4.27082 15.9592C4.34474 15.9592 4.41794 15.9446 4.48622 15.9163C4.55451 15.888 4.61655 15.8465 4.66879 15.7942L6.91879 13.5442C7.02434 13.4387 7.08363 13.2955 7.08363 13.1462C7.08363 12.997 7.02434 12.8538 6.91879 12.7483C6.81324 12.6427 6.67009 12.5834 6.52082 12.5834C6.37155 12.5834 6.2284 12.6427 6.12285 12.7483Z" fill="#B8B9BD"/>
</svg>
