<svg width="19" height="19" viewBox="0 0 19 19" fill="none" xmlns="http://www.w3.org/2000/svg">
<path d="M16.4166 9.09119C16.4166 9.24038 16.3573 9.38345 16.2518 9.48894C16.1463 9.59443 16.0033 9.65369 15.8541 9.65369H9.66657C9.51739 9.65369 9.37431 9.59443 9.26883 9.48894C9.16334 9.38345 9.10407 9.24038 9.10407 9.09119C9.10407 8.94201 9.16334 8.79894 9.26883 8.69345C9.37431 8.58796 9.51739 8.52869 9.66657 8.52869H15.8541C16.0033 8.52869 16.1463 8.58796 16.2518 8.69345C16.3573 8.79894 16.4166 8.94201 16.4166 9.09119ZM9.66657 5.15369H15.8541C16.0033 5.15369 16.1463 5.09443 16.2518 4.98894C16.3573 4.88345 16.4166 4.74038 16.4166 4.59119C16.4166 4.44201 16.3573 4.29894 16.2518 4.19345C16.1463 4.08796 16.0033 4.02869 15.8541 4.02869H9.66657C9.51739 4.02869 9.37431 4.08796 9.26883 4.19345C9.16334 4.29894 9.10407 4.44201 9.10407 4.59119C9.10407 4.74038 9.16334 4.88345 9.26883 4.98894C9.37431 5.09443 9.51739 5.15369 9.66657 5.15369ZM15.8541 13.0287H9.66657C9.51739 13.0287 9.37431 13.088 9.26883 13.1934C9.16334 13.2989 9.10407 13.442 9.10407 13.5912C9.10407 13.7404 9.16334 13.8835 9.26883 13.9889C9.37431 14.0944 9.51739 14.1537 9.66657 14.1537H15.8541C16.0033 14.1537 16.1463 14.0944 16.2518 13.9889C16.3573 13.8835 16.4166 13.7404 16.4166 13.5912C16.4166 13.442 16.3573 13.2989 16.2518 13.1934C16.1463 13.088 16.0033 13.0287 15.8541 13.0287ZM6.4561 3.06823L4.60407 4.92096L3.87704 4.19323C3.77149 4.08768 3.62834 4.02838 3.47907 4.02838C3.32981 4.02838 3.18665 4.08768 3.0811 4.19323C2.97556 4.29877 2.91626 4.44193 2.91626 4.59119C2.91626 4.74046 2.97556 4.88362 3.0811 4.98916L4.2061 6.11416C4.25834 6.16646 4.32038 6.20795 4.38867 6.23626C4.45696 6.26457 4.53015 6.27914 4.60407 6.27914C4.67799 6.27914 4.75119 6.26457 4.81948 6.23626C4.88776 6.20795 4.9498 6.16646 5.00204 6.11416L7.25204 3.86416C7.35759 3.75861 7.41689 3.61546 7.41689 3.46619C7.41689 3.31693 7.35759 3.17377 7.25204 3.06823C7.14649 2.96268 7.00334 2.90338 6.85407 2.90338C6.70481 2.90338 6.56165 2.96268 6.4561 3.06823ZM6.4561 7.56823L4.60407 9.42096L3.87704 8.69323C3.77149 8.58768 3.62834 8.52838 3.47907 8.52838C3.32981 8.52838 3.18665 8.58768 3.0811 8.69323C2.97556 8.79877 2.91626 8.94193 2.91626 9.09119C2.91626 9.1651 2.93082 9.23829 2.9591 9.30657C2.98739 9.37486 3.02884 9.4369 3.0811 9.48916L4.2061 10.6142C4.25834 10.6665 4.32038 10.708 4.38867 10.7363C4.45696 10.7646 4.53015 10.7791 4.60407 10.7791C4.67799 10.7791 4.75119 10.7646 4.81948 10.7363C4.88776 10.708 4.9498 10.6665 5.00204 10.6142L7.25204 8.36416C7.35759 8.25862 7.41689 8.11546 7.41689 7.96619C7.41689 7.81693 7.35759 7.67377 7.25204 7.56823C7.14649 7.46268 7.00334 7.40338 6.85407 7.40338C6.70481 7.40338 6.56165 7.46268 6.4561 7.56823ZM6.4561 12.0682L4.60407 13.921L3.87704 13.1932C3.82478 13.141 3.76274 13.0995 3.69445 13.0712C3.62617 13.0429 3.55298 13.0284 3.47907 13.0284C3.40516 13.0284 3.33198 13.0429 3.26369 13.0712C3.19541 13.0995 3.13337 13.141 3.0811 13.1932C3.02884 13.2455 2.98739 13.3075 2.9591 13.3758C2.93082 13.4441 2.91626 13.5173 2.91626 13.5912C2.91626 13.6651 2.93082 13.7383 2.9591 13.8066C2.98739 13.8749 3.02884 13.9369 3.0811 13.9892L4.2061 15.1142C4.25834 15.1665 4.32038 15.208 4.38867 15.2363C4.45696 15.2646 4.53015 15.2791 4.60407 15.2791C4.67799 15.2791 4.75119 15.2646 4.81948 15.2363C4.88776 15.208 4.9498 15.1665 5.00204 15.1142L7.25204 12.8642C7.35759 12.7586 7.41689 12.6155 7.41689 12.4662C7.41689 12.3169 7.35759 12.1738 7.25204 12.0682C7.14649 11.9627 7.00334 11.9034 6.85407 11.9034C6.70481 11.9034 6.56165 11.9627 6.4561 12.0682Z" fill="#B8B9BD"/>
</svg>
