<svg width="18" height="19" viewBox="0 0 18 19" fill="none" xmlns="http://www.w3.org/2000/svg">
<path d="M15.7501 9.77124C15.7501 9.92042 15.6908 10.0635 15.5853 10.169C15.4798 10.2745 15.3368 10.3337 15.1876 10.3337H9.00007C8.85088 10.3337 8.70781 10.2745 8.60232 10.169C8.49683 10.0635 8.43757 9.92042 8.43757 9.77124C8.43757 9.62206 8.49683 9.47898 8.60232 9.37349C8.70781 9.268 8.85088 9.20874 9.00007 9.20874H15.1876C15.3368 9.20874 15.4798 9.268 15.5853 9.37349C15.6908 9.47898 15.7501 9.62206 15.7501 9.77124ZM9.00007 5.83374H15.1876C15.3368 5.83374 15.4798 5.77448 15.5853 5.66899C15.6908 5.5635 15.7501 5.42042 15.7501 5.27124C15.7501 5.12206 15.6908 4.97898 15.5853 4.87349C15.4798 4.768 15.3368 4.70874 15.1876 4.70874H9.00007C8.85088 4.70874 8.70781 4.768 8.60232 4.87349C8.49683 4.97898 8.43757 5.12206 8.43757 5.27124C8.43757 5.42042 8.49683 5.5635 8.60232 5.66899C8.70781 5.77448 8.85088 5.83374 9.00007 5.83374ZM15.1876 13.7087H9.00007C8.85088 13.7087 8.70781 13.768 8.60232 13.8735C8.49683 13.979 8.43757 14.1221 8.43757 14.2712C8.43757 14.4204 8.49683 14.5635 8.60232 14.669C8.70781 14.7745 8.85088 14.8337 9.00007 14.8337H15.1876C15.3368 14.8337 15.4798 14.7745 15.5853 14.669C15.6908 14.5635 15.7501 14.4204 15.7501 14.2712C15.7501 14.1221 15.6908 13.979 15.5853 13.8735C15.4798 13.768 15.3368 13.7087 15.1876 13.7087ZM5.7896 3.74827L3.93757 5.60101L3.21054 4.87327C3.10499 4.76772 2.96184 4.70843 2.81257 4.70843C2.6633 4.70843 2.52015 4.76772 2.4146 4.87327C2.30905 4.97882 2.24976 5.12197 2.24976 5.27124C2.24976 5.42051 2.30905 5.56366 2.4146 5.66921L3.5396 6.79421C3.59184 6.84651 3.65388 6.888 3.72216 6.9163C3.79045 6.94461 3.86365 6.95918 3.93757 6.95918C4.01149 6.95918 4.08469 6.94461 4.15297 6.9163C4.22126 6.888 4.2833 6.84651 4.33554 6.79421L6.58554 4.54421C6.69109 4.43866 6.75038 4.29551 6.75038 4.14624C6.75038 3.99697 6.69109 3.85382 6.58554 3.74827C6.47999 3.64272 6.33684 3.58343 6.18757 3.58343C6.0383 3.58343 5.89515 3.64272 5.7896 3.74827ZM5.7896 8.24827L3.93757 10.101L3.21054 9.37327C3.10499 9.26772 2.96184 9.20843 2.81257 9.20843C2.6633 9.20843 2.52015 9.26772 2.4146 9.37327C2.30905 9.47882 2.24976 9.62197 2.24976 9.77124C2.24976 9.84515 2.26431 9.91834 2.2926 9.98662C2.32088 10.0549 2.36234 10.1169 2.4146 10.1692L3.5396 11.2942C3.59184 11.3465 3.65388 11.388 3.72216 11.4163C3.79045 11.4446 3.86365 11.4592 3.93757 11.4592C4.01149 11.4592 4.08469 11.4446 4.15297 11.4163C4.22126 11.388 4.2833 11.3465 4.33554 11.2942L6.58554 9.04421C6.69109 8.93866 6.75038 8.79551 6.75038 8.64624C6.75038 8.49697 6.69109 8.35382 6.58554 8.24827C6.47999 8.14272 6.33684 8.08343 6.18757 8.08343C6.0383 8.08343 5.89515 8.14272 5.7896 8.24827ZM5.7896 12.7483L3.93757 14.601L3.21054 13.8733C3.15828 13.821 3.09623 13.7796 3.02795 13.7513C2.95966 13.723 2.88648 13.7084 2.81257 13.7084C2.73866 13.7084 2.66547 13.723 2.59719 13.7513C2.52891 13.7796 2.46686 13.821 2.4146 13.8733C2.36234 13.9255 2.32088 13.9876 2.2926 14.0559C2.26431 14.1241 2.24976 14.1973 2.24976 14.2712C2.24976 14.3452 2.26431 14.4183 2.2926 14.4866C2.32088 14.5549 2.36234 14.6169 2.4146 14.6692L3.5396 15.7942C3.59184 15.8465 3.65388 15.888 3.72216 15.9163C3.79045 15.9446 3.86365 15.9592 3.93757 15.9592C4.01149 15.9592 4.08469 15.9446 4.15297 15.9163C4.22126 15.888 4.2833 15.8465 4.33554 15.7942L6.58554 13.5442C6.69109 13.4387 6.75038 13.2955 6.75038 13.1462C6.75038 12.997 6.69109 12.8538 6.58554 12.7483C6.47999 12.6427 6.33684 12.5834 6.18757 12.5834C6.0383 12.5834 5.89515 12.6427 5.7896 12.7483Z" fill="#B8B9BD"/>
</svg>
