<svg width="19" height="19" viewBox="0 0 19 19" fill="none" xmlns="http://www.w3.org/2000/svg">
<path d="M16.4166 9.77124C16.4166 9.92042 16.3573 10.0635 16.2518 10.169C16.1463 10.2745 16.0033 10.3337 15.8541 10.3337H9.66657C9.51739 10.3337 9.37431 10.2745 9.26883 10.169C9.16334 10.0635 9.10407 9.92042 9.10407 9.77124C9.10407 9.62206 9.16334 9.47898 9.26883 9.37349C9.37431 9.268 9.51739 9.20874 9.66657 9.20874H15.8541C16.0033 9.20874 16.1463 9.268 16.2518 9.37349C16.3573 9.47898 16.4166 9.62206 16.4166 9.77124ZM9.66657 5.83374H15.8541C16.0033 5.83374 16.1463 5.77448 16.2518 5.66899C16.3573 5.5635 16.4166 5.42042 16.4166 5.27124C16.4166 5.12206 16.3573 4.97898 16.2518 4.87349C16.1463 4.768 16.0033 4.70874 15.8541 4.70874H9.66657C9.51739 4.70874 9.37431 4.768 9.26883 4.87349C9.16334 4.97898 9.10407 5.12206 9.10407 5.27124C9.10407 5.42042 9.16334 5.5635 9.26883 5.66899C9.37431 5.77448 9.51739 5.83374 9.66657 5.83374ZM15.8541 13.7087H9.66657C9.51739 13.7087 9.37431 13.768 9.26883 13.8735C9.16334 13.979 9.10407 14.1221 9.10407 14.2712C9.10407 14.4204 9.16334 14.5635 9.26883 14.669C9.37431 14.7745 9.51739 14.8337 9.66657 14.8337H15.8541C16.0033 14.8337 16.1463 14.7745 16.2518 14.669C16.3573 14.5635 16.4166 14.4204 16.4166 14.2712C16.4166 14.1221 16.3573 13.979 16.2518 13.8735C16.1463 13.768 16.0033 13.7087 15.8541 13.7087ZM6.4561 3.74827L4.60407 5.60101L3.87704 4.87327C3.77149 4.76772 3.62834 4.70843 3.47907 4.70843C3.32981 4.70843 3.18665 4.76772 3.0811 4.87327C2.97556 4.97882 2.91626 5.12197 2.91626 5.27124C2.91626 5.42051 2.97556 5.56366 3.0811 5.66921L4.2061 6.79421C4.25834 6.84651 4.32038 6.888 4.38867 6.9163C4.45696 6.94461 4.53015 6.95918 4.60407 6.95918C4.67799 6.95918 4.75119 6.94461 4.81948 6.9163C4.88776 6.888 4.9498 6.84651 5.00204 6.79421L7.25204 4.54421C7.35759 4.43866 7.41689 4.29551 7.41689 4.14624C7.41689 3.99697 7.35759 3.85382 7.25204 3.74827C7.14649 3.64272 7.00334 3.58343 6.85407 3.58343C6.70481 3.58343 6.56165 3.64272 6.4561 3.74827ZM6.4561 8.24827L4.60407 10.101L3.87704 9.37327C3.77149 9.26772 3.62834 9.20843 3.47907 9.20843C3.32981 9.20843 3.18665 9.26772 3.0811 9.37327C2.97556 9.47882 2.91626 9.62197 2.91626 9.77124C2.91626 9.84515 2.93082 9.91834 2.9591 9.98662C2.98739 10.0549 3.02884 10.1169 3.0811 10.1692L4.2061 11.2942C4.25834 11.3465 4.32038 11.388 4.38867 11.4163C4.45696 11.4446 4.53015 11.4592 4.60407 11.4592C4.67799 11.4592 4.75119 11.4446 4.81948 11.4163C4.88776 11.388 4.9498 11.3465 5.00204 11.2942L7.25204 9.04421C7.35759 8.93866 7.41689 8.79551 7.41689 8.64624C7.41689 8.49697 7.35759 8.35382 7.25204 8.24827C7.14649 8.14272 7.00334 8.08343 6.85407 8.08343C6.70481 8.08343 6.56165 8.14272 6.4561 8.24827ZM6.4561 12.7483L4.60407 14.601L3.87704 13.8733C3.82478 13.821 3.76274 13.7796 3.69445 13.7513C3.62617 13.723 3.55298 13.7084 3.47907 13.7084C3.40516 13.7084 3.33198 13.723 3.26369 13.7513C3.19541 13.7796 3.13337 13.821 3.0811 13.8733C3.02884 13.9255 2.98739 13.9876 2.9591 14.0559C2.93082 14.1241 2.91626 14.1973 2.91626 14.2712C2.91626 14.3452 2.93082 14.4183 2.9591 14.4866C2.98739 14.5549 3.02884 14.6169 3.0811 14.6692L4.2061 15.7942C4.25834 15.8465 4.32038 15.888 4.38867 15.9163C4.45696 15.9446 4.53015 15.9592 4.60407 15.9592C4.67799 15.9592 4.75119 15.9446 4.81948 15.9163C4.88776 15.888 4.9498 15.8465 5.00204 15.7942L7.25204 13.5442C7.35759 13.4387 7.41689 13.2955 7.41689 13.1462C7.41689 12.997 7.35759 12.8538 7.25204 12.7483C7.14649 12.6427 7.00334 12.5834 6.85407 12.5834C6.70481 12.5834 6.56165 12.6427 6.4561 12.7483Z" fill="#B8B9BD"/>
</svg>
