<svg width="17" height="18" viewBox="0 0 17 18" fill="none" xmlns="http://www.w3.org/2000/svg">
<path d="M15.49 9.94865C15.423 9.88148 15.3389 9.83383 15.2469 9.81081C15.1548 9.7878 15.0582 9.79028 14.9675 9.81801C13.9711 10.1192 12.9116 10.1445 11.902 9.89108C10.8924 9.63768 9.97047 9.11512 9.23442 8.37908C8.49838 7.64304 7.97582 6.72109 7.72242 5.71148C7.46902 4.70188 7.49427 3.64244 7.79549 2.64605C7.82345 2.55526 7.82613 2.45856 7.80324 2.36636C7.78035 2.27417 7.73276 2.18995 7.66558 2.12278C7.59841 2.0556 7.51419 2.00801 7.42199 1.98512C7.32979 1.96223 7.2331 1.96491 7.14231 1.99287C5.76476 2.41485 4.5554 3.26056 3.68631 4.40965C2.92627 5.41872 2.46267 6.61974 2.34759 7.87777C2.2325 9.13581 2.4705 10.401 3.03483 11.5312C3.59916 12.6615 4.46748 13.6119 5.54222 14.2759C6.61697 14.9398 7.85556 15.2909 9.11884 15.2897C10.5927 15.2943 12.0273 14.8152 13.2026 13.9259C14.3516 13.0568 15.1973 11.8474 15.6193 10.4699C15.647 10.3794 15.6495 10.2832 15.6268 10.1914C15.604 10.0996 15.5567 10.0157 15.49 9.94865ZM12.5742 13.0911C11.4674 13.9247 10.0967 14.3305 8.71449 14.2337C7.33226 14.1369 6.03151 13.5441 5.05169 12.5644C4.07187 11.5846 3.47894 10.2839 3.38204 8.90172C3.28514 7.51949 3.6908 6.14879 4.52435 5.04193C5.06741 4.32477 5.76949 3.74343 6.57534 3.34365C6.52944 3.66582 6.5063 3.99082 6.50611 4.31624C6.50801 6.1173 7.22432 7.84405 8.49787 9.1176C9.77141 10.3911 11.4982 11.1075 13.2992 11.1094C13.6253 11.1093 13.951 11.0861 14.2738 11.0401C13.8736 11.8461 13.2918 12.5482 12.5742 13.0911Z" fill="black"/>
</svg>
