<svg width="25" height="25" viewBox="0 0 25 25" fill="none" xmlns="http://www.w3.org/2000/svg">
<path d="M21.3333 12.0912C21.3333 12.2901 21.2542 12.4809 21.1136 12.6215C20.9729 12.7622 20.7822 12.8412 20.5833 12.8412H13.0833V20.3412C13.0833 20.5401 13.0042 20.7309 12.8636 20.8715C12.7229 21.0122 12.5322 21.0912 12.3333 21.0912C12.1343 21.0912 11.9436 21.0122 11.8029 20.8715C11.6623 20.7309 11.5833 20.5401 11.5833 20.3412V12.8412H4.08325C3.88434 12.8412 3.69357 12.7622 3.55292 12.6215C3.41227 12.4809 3.33325 12.2901 3.33325 12.0912C3.33325 11.8923 3.41227 11.7015 3.55292 11.5609C3.69357 11.4202 3.88434 11.3412 4.08325 11.3412H11.5833V3.84119C11.5833 3.64227 11.6623 3.45151 11.8029 3.31086C11.9436 3.1702 12.1343 3.09119 12.3333 3.09119C12.5322 3.09119 12.7229 3.1702 12.8636 3.31086C13.0042 3.45151 13.0833 3.64227 13.0833 3.84119V11.3412H20.5833C20.7822 11.3412 20.9729 11.4202 21.1136 11.5609C21.2542 11.7015 21.3333 11.8923 21.3333 12.0912Z" fill="#7D8088"/>
</svg>
