<svg width="24" height="25" viewBox="0 0 24 25" fill="none" xmlns="http://www.w3.org/2000/svg">
<path d="M21 12.7712C21 12.9702 20.921 13.1609 20.7803 13.3016C20.6397 13.4422 20.4489 13.5212 20.25 13.5212H12.75V21.0212C12.75 21.2202 12.671 21.4109 12.5303 21.5516C12.3897 21.6922 12.1989 21.7712 12 21.7712C11.8011 21.7712 11.6103 21.6922 11.4697 21.5516C11.329 21.4109 11.25 21.2202 11.25 21.0212V13.5212H3.75C3.55109 13.5212 3.36032 13.4422 3.21967 13.3016C3.07902 13.1609 3 12.9702 3 12.7712C3 12.5723 3.07902 12.3816 3.21967 12.2409C3.36032 12.1003 3.55109 12.0212 3.75 12.0212H11.25V4.52124C11.25 4.32233 11.329 4.13156 11.4697 3.99091C11.6103 3.85026 11.8011 3.77124 12 3.77124C12.1989 3.77124 12.3897 3.85026 12.5303 3.99091C12.671 4.13156 12.75 4.32233 12.75 4.52124V12.0212H20.25C20.4489 12.0212 20.6397 12.1003 20.7803 12.2409C20.921 12.3816 21 12.5723 21 12.7712Z" fill="#7D8088"/>
</svg>
