<svg width="24" height="25" viewBox="0 0 24 25" fill="none" xmlns="http://www.w3.org/2000/svg">
<path d="M21 12.0912C21 12.2901 20.921 12.4809 20.7803 12.6215C20.6397 12.7622 20.4489 12.8412 20.25 12.8412H12.75V20.3412C12.75 20.5401 12.671 20.7309 12.5303 20.8715C12.3897 21.0122 12.1989 21.0912 12 21.0912C11.8011 21.0912 11.6103 21.0122 11.4697 20.8715C11.329 20.7309 11.25 20.5401 11.25 20.3412V12.8412H3.75C3.55109 12.8412 3.36032 12.7622 3.21967 12.6215C3.07902 12.4809 3 12.2901 3 12.0912C3 11.8923 3.07902 11.7015 3.21967 11.5609C3.36032 11.4202 3.55109 11.3412 3.75 11.3412H11.25V3.84119C11.25 3.64227 11.329 3.45151 11.4697 3.31086C11.6103 3.1702 11.8011 3.09119 12 3.09119C12.1989 3.09119 12.3897 3.1702 12.5303 3.31086C12.671 3.45151 12.75 3.64227 12.75 3.84119V11.3412H20.25C20.4489 11.3412 20.6397 11.4202 20.7803 11.5609C20.921 11.7015 21 11.8923 21 12.0912Z" fill="#7D8088"/>
</svg>
