<svg width="25" height="25" viewBox="0 0 25 25" fill="none" xmlns="http://www.w3.org/2000/svg">
<path d="M21.6667 12.7712C21.6667 12.9702 21.5877 13.1609 21.4471 13.3016C21.3064 13.4422 21.1157 13.5212 20.9167 13.5212H13.4167V21.0212C13.4167 21.2202 13.3377 21.4109 13.1971 21.5516C13.0564 21.6922 12.8657 21.7712 12.6667 21.7712C12.4678 21.7712 12.2771 21.6922 12.1364 21.5516C11.9958 21.4109 11.9167 21.2202 11.9167 21.0212V13.5212H4.41675C4.21784 13.5212 4.02707 13.4422 3.88642 13.3016C3.74577 13.1609 3.66675 12.9702 3.66675 12.7712C3.66675 12.5723 3.74577 12.3816 3.88642 12.2409C4.02707 12.1003 4.21784 12.0212 4.41675 12.0212H11.9167V4.52124C11.9167 4.32233 11.9958 4.13156 12.1364 3.99091C12.2771 3.85026 12.4678 3.77124 12.6667 3.77124C12.8657 3.77124 13.0564 3.85026 13.1971 3.99091C13.3377 4.13156 13.4167 4.32233 13.4167 4.52124V12.0212H20.9167C21.1157 12.0212 21.3064 12.1003 21.4471 12.2409C21.5877 12.3816 21.6667 12.5723 21.6667 12.7712Z" fill="#7D8088"/>
</svg>
