<svg width="25" height="25" viewBox="0 0 25 25" fill="none" xmlns="http://www.w3.org/2000/svg">
<path d="M21.3333 12.7712C21.3333 12.9702 21.2542 13.1609 21.1136 13.3016C20.9729 13.4422 20.7822 13.5212 20.5833 13.5212H13.0833V21.0212C13.0833 21.2202 13.0042 21.4109 12.8636 21.5516C12.7229 21.6922 12.5322 21.7712 12.3333 21.7712C12.1343 21.7712 11.9436 21.6922 11.8029 21.5516C11.6623 21.4109 11.5833 21.2202 11.5833 21.0212V13.5212H4.08325C3.88434 13.5212 3.69357 13.4422 3.55292 13.3016C3.41227 13.1609 3.33325 12.9702 3.33325 12.7712C3.33325 12.5723 3.41227 12.3816 3.55292 12.2409C3.69357 12.1003 3.88434 12.0212 4.08325 12.0212H11.5833V4.52124C11.5833 4.32233 11.6623 4.13156 11.8029 3.99091C11.9436 3.85026 12.1343 3.77124 12.3333 3.77124C12.5322 3.77124 12.7229 3.85026 12.8636 3.99091C13.0042 4.13156 13.0833 4.32233 13.0833 4.52124V12.0212H20.5833C20.7822 12.0212 20.9729 12.1003 21.1136 12.2409C21.2542 12.3816 21.3333 12.5723 21.3333 12.7712Z" fill="#7D8088"/>
</svg>
