<svg width="25" height="25" viewBox="0 0 25 25" fill="none" xmlns="http://www.w3.org/2000/svg">
<path d="M21.6667 12.0912C21.6667 12.2901 21.5877 12.4809 21.4471 12.6215C21.3064 12.7622 21.1157 12.8412 20.9167 12.8412H13.4167V20.3412C13.4167 20.5401 13.3377 20.7309 13.1971 20.8715C13.0564 21.0122 12.8657 21.0912 12.6667 21.0912C12.4678 21.0912 12.2771 21.0122 12.1364 20.8715C11.9958 20.7309 11.9167 20.5401 11.9167 20.3412V12.8412H4.41675C4.21784 12.8412 4.02707 12.7622 3.88642 12.6215C3.74577 12.4809 3.66675 12.2901 3.66675 12.0912C3.66675 11.8923 3.74577 11.7015 3.88642 11.5609C4.02707 11.4202 4.21784 11.3412 4.41675 11.3412H11.9167V3.84119C11.9167 3.64227 11.9958 3.45151 12.1364 3.31086C12.2771 3.1702 12.4678 3.09119 12.6667 3.09119C12.8657 3.09119 13.0564 3.1702 13.1971 3.31086C13.3377 3.45151 13.4167 3.64227 13.4167 3.84119V11.3412H20.9167C21.1157 11.3412 21.3064 11.4202 21.4471 11.5609C21.5877 11.7015 21.6667 11.8923 21.6667 12.0912Z" fill="#7D8088"/>
</svg>
