<svg width="24" height="25" viewBox="0 0 24 25" fill="none" xmlns="http://www.w3.org/2000/svg">
<path d="M13.125 12.7712C13.125 12.9937 13.059 13.2113 12.9354 13.3963C12.8118 13.5813 12.6361 13.7255 12.4305 13.8106C12.225 13.8958 11.9988 13.918 11.7805 13.8746C11.5623 13.8312 11.3618 13.7241 11.2045 13.5667C11.0472 13.4094 10.94 13.2089 10.8966 12.9907C10.8532 12.7725 10.8755 12.5463 10.9606 12.3407C11.0458 12.1352 11.19 11.9595 11.375 11.8358C11.56 11.7122 11.7775 11.6462 12 11.6462C12.2984 11.6462 12.5845 11.7648 12.7955 11.9757C13.0065 12.1867 13.125 12.4729 13.125 12.7712ZM12 7.52124C12.2225 7.52124 12.44 7.45526 12.625 7.33164C12.81 7.20803 12.9542 7.03233 13.0394 6.82676C13.1245 6.62119 13.1468 6.39499 13.1034 6.17676C13.06 5.95854 12.9528 5.75808 12.7955 5.60075C12.6382 5.44341 12.4377 5.33627 12.2195 5.29286C12.0012 5.24945 11.775 5.27173 11.5695 5.35688C11.3639 5.44202 11.1882 5.58622 11.0646 5.77122C10.941 5.95623 10.875 6.17374 10.875 6.39624C10.875 6.69461 10.9935 6.98076 11.2045 7.19174C11.4155 7.40271 11.7016 7.52124 12 7.52124ZM12 18.0212C11.7775 18.0212 11.56 18.0872 11.375 18.2108C11.19 18.3345 11.0458 18.5102 10.9606 18.7157C10.8755 18.9213 10.8532 19.1475 10.8966 19.3657C10.94 19.5839 11.0472 19.7844 11.2045 19.9417C11.3618 20.0991 11.5623 20.2062 11.7805 20.2496C11.9988 20.293 12.225 20.2708 12.4305 20.1856C12.6361 20.1005 12.8118 19.9563 12.9354 19.7713C13.059 19.5863 13.125 19.3687 13.125 19.1462C13.125 18.8479 13.0065 18.5617 12.7955 18.3507C12.5845 18.1398 12.2984 18.0212 12 18.0212Z" fill="#B8B9BD"/>
</svg>
