<svg width="25" height="25" viewBox="0 0 25 25" fill="none" xmlns="http://www.w3.org/2000/svg">
<path d="M13.4583 12.0912C13.4583 12.3137 13.3923 12.5312 13.2687 12.7162C13.145 12.9012 12.9693 13.0454 12.7638 13.1306C12.5582 13.2157 12.332 13.238 12.1138 13.1946C11.8955 13.1512 11.6951 13.044 11.5378 12.8867C11.3804 12.7293 11.2733 12.5289 11.2299 12.3107C11.1865 12.0924 11.2087 11.8662 11.2939 11.6607C11.379 11.4551 11.5232 11.2794 11.7082 11.1558C11.8932 11.0322 12.1107 10.9662 12.3333 10.9662C12.6316 10.9662 12.9178 11.0847 13.1287 11.2957C13.3397 11.5067 13.4583 11.7928 13.4583 12.0912ZM12.3333 6.84119C12.5558 6.84119 12.7733 6.77521 12.9583 6.65159C13.1433 6.52797 13.2875 6.35227 13.3726 6.14671C13.4578 5.94114 13.48 5.71494 13.4366 5.49671C13.3932 5.27848 13.2861 5.07803 13.1287 4.92069C12.9714 4.76336 12.771 4.65621 12.5527 4.6128C12.3345 4.5694 12.1083 4.59167 11.9027 4.67682C11.6972 4.76197 11.5215 4.90617 11.3978 5.09117C11.2742 5.27618 11.2083 5.49368 11.2083 5.71619C11.2083 6.01456 11.3268 6.3007 11.5378 6.51168C11.7487 6.72266 12.0349 6.84119 12.3333 6.84119ZM12.3333 17.3412C12.1107 17.3412 11.8932 17.4072 11.7082 17.5308C11.5232 17.6544 11.379 17.8301 11.2939 18.0357C11.2087 18.2412 11.1865 18.4674 11.2299 18.6857C11.2733 18.9039 11.3804 19.1043 11.5378 19.2617C11.6951 19.419 11.8955 19.5262 12.1138 19.5696C12.332 19.613 12.5582 19.5907 12.7638 19.5056C12.9693 19.4204 13.145 19.2762 13.2687 19.0912C13.3923 18.9062 13.4583 18.6887 13.4583 18.4662C13.4583 18.1678 13.3397 17.8817 13.1287 17.6707C12.9178 17.4597 12.6316 17.3412 12.3333 17.3412Z" fill="#B8B9BD"/>
</svg>
