<svg width="25" height="25" viewBox="0 0 25 25" fill="none" xmlns="http://www.w3.org/2000/svg">
<path d="M13.4583 12.7712C13.4583 12.9937 13.3923 13.2113 13.2687 13.3963C13.145 13.5813 12.9693 13.7255 12.7638 13.8106C12.5582 13.8958 12.332 13.918 12.1138 13.8746C11.8955 13.8312 11.6951 13.7241 11.5378 13.5667C11.3804 13.4094 11.2733 13.2089 11.2299 12.9907C11.1865 12.7725 11.2087 12.5463 11.2939 12.3407C11.379 12.1352 11.5232 11.9595 11.7082 11.8358C11.8932 11.7122 12.1107 11.6462 12.3333 11.6462C12.6316 11.6462 12.9178 11.7648 13.1287 11.9757C13.3397 12.1867 13.4583 12.4729 13.4583 12.7712ZM12.3333 7.52124C12.5558 7.52124 12.7733 7.45526 12.9583 7.33164C13.1433 7.20803 13.2875 7.03233 13.3726 6.82676C13.4578 6.62119 13.48 6.39499 13.4366 6.17676C13.3932 5.95854 13.2861 5.75808 13.1287 5.60075C12.9714 5.44341 12.771 5.33627 12.5527 5.29286C12.3345 5.24945 12.1083 5.27173 11.9027 5.35688C11.6972 5.44202 11.5215 5.58622 11.3978 5.77122C11.2742 5.95623 11.2083 6.17374 11.2083 6.39624C11.2083 6.69461 11.3268 6.98076 11.5378 7.19174C11.7487 7.40271 12.0349 7.52124 12.3333 7.52124ZM12.3333 18.0212C12.1107 18.0212 11.8932 18.0872 11.7082 18.2108C11.5232 18.3345 11.379 18.5102 11.2939 18.7157C11.2087 18.9213 11.1865 19.1475 11.2299 19.3657C11.2733 19.5839 11.3804 19.7844 11.5378 19.9417C11.6951 20.0991 11.8955 20.2062 12.1138 20.2496C12.332 20.293 12.5582 20.2708 12.7638 20.1856C12.9693 20.1005 13.145 19.9563 13.2687 19.7713C13.3923 19.5863 13.4583 19.3687 13.4583 19.1462C13.4583 18.8479 13.3397 18.5617 13.1287 18.3507C12.9178 18.1398 12.6316 18.0212 12.3333 18.0212Z" fill="#B8B9BD"/>
</svg>
