<svg width="25" height="25" viewBox="0 0 25 25" fill="none" xmlns="http://www.w3.org/2000/svg">
<path d="M13.7917 12.0912C13.7917 12.3137 13.7258 12.5312 13.6022 12.7162C13.4785 12.9012 13.3028 13.0454 13.0973 13.1306C12.8917 13.2157 12.6655 13.238 12.4473 13.1946C12.229 13.1512 12.0286 13.044 11.8713 12.8867C11.7139 12.7293 11.6068 12.5289 11.5634 12.3107C11.52 12.0924 11.5422 11.8662 11.6274 11.6607C11.7125 11.4551 11.8567 11.2794 12.0417 11.1558C12.2267 11.0322 12.4442 10.9662 12.6667 10.9662C12.9651 10.9662 13.2513 11.0847 13.4622 11.2957C13.6732 11.5067 13.7917 11.7928 13.7917 12.0912ZM12.6667 6.84119C12.8893 6.84119 13.1068 6.77521 13.2918 6.65159C13.4768 6.52797 13.621 6.35227 13.7061 6.14671C13.7913 5.94114 13.8135 5.71494 13.7701 5.49671C13.7267 5.27848 13.6196 5.07803 13.4622 4.92069C13.3049 4.76336 13.1045 4.65621 12.8862 4.6128C12.668 4.5694 12.4418 4.59167 12.2362 4.67682C12.0307 4.76197 11.855 4.90617 11.7313 5.09117C11.6077 5.27618 11.5417 5.49368 11.5417 5.71619C11.5417 6.01456 11.6603 6.3007 11.8713 6.51168C12.0822 6.72266 12.3684 6.84119 12.6667 6.84119ZM12.6667 17.3412C12.4442 17.3412 12.2267 17.4072 12.0417 17.5308C11.8567 17.6544 11.7125 17.8301 11.6274 18.0357C11.5422 18.2412 11.52 18.4674 11.5634 18.6857C11.6068 18.9039 11.7139 19.1043 11.8713 19.2617C12.0286 19.419 12.229 19.5262 12.4473 19.5696C12.6655 19.613 12.8917 19.5907 13.0973 19.5056C13.3028 19.4204 13.4785 19.2762 13.6022 19.0912C13.7258 18.9062 13.7917 18.6887 13.7917 18.4662C13.7917 18.1678 13.6732 17.8817 13.4622 17.6707C13.2513 17.4597 12.9651 17.3412 12.6667 17.3412Z" fill="#B8B9BD"/>
</svg>
