<svg width="25" height="25" viewBox="0 0 25 25" fill="none" xmlns="http://www.w3.org/2000/svg">
<path d="M13.7917 12.7712C13.7917 12.9937 13.7258 13.2113 13.6022 13.3963C13.4785 13.5813 13.3028 13.7255 13.0973 13.8106C12.8917 13.8958 12.6655 13.918 12.4473 13.8746C12.229 13.8312 12.0286 13.7241 11.8713 13.5667C11.7139 13.4094 11.6068 13.2089 11.5634 12.9907C11.52 12.7725 11.5422 12.5463 11.6274 12.3407C11.7125 12.1352 11.8567 11.9595 12.0417 11.8358C12.2267 11.7122 12.4442 11.6462 12.6667 11.6462C12.9651 11.6462 13.2513 11.7648 13.4622 11.9757C13.6732 12.1867 13.7917 12.4729 13.7917 12.7712ZM12.6667 7.52124C12.8893 7.52124 13.1068 7.45526 13.2918 7.33164C13.4768 7.20803 13.621 7.03233 13.7061 6.82676C13.7913 6.62119 13.8135 6.39499 13.7701 6.17676C13.7267 5.95854 13.6196 5.75808 13.4622 5.60075C13.3049 5.44341 13.1045 5.33627 12.8862 5.29286C12.668 5.24945 12.4418 5.27173 12.2362 5.35688C12.0307 5.44202 11.855 5.58622 11.7313 5.77122C11.6077 5.95623 11.5417 6.17374 11.5417 6.39624C11.5417 6.69461 11.6603 6.98076 11.8713 7.19174C12.0822 7.40271 12.3684 7.52124 12.6667 7.52124ZM12.6667 18.0212C12.4442 18.0212 12.2267 18.0872 12.0417 18.2108C11.8567 18.3345 11.7125 18.5102 11.6274 18.7157C11.5422 18.9213 11.52 19.1475 11.5634 19.3657C11.6068 19.5839 11.7139 19.7844 11.8713 19.9417C12.0286 20.0991 12.229 20.2062 12.4473 20.2496C12.6655 20.293 12.8917 20.2708 13.0973 20.1856C13.3028 20.1005 13.4785 19.9563 13.6022 19.7713C13.7258 19.5863 13.7917 19.3687 13.7917 19.1462C13.7917 18.8479 13.6732 18.5617 13.4622 18.3507C13.2513 18.1398 12.9651 18.0212 12.6667 18.0212Z" fill="#B8B9BD"/>
</svg>
