<svg width="24" height="25" viewBox="0 0 24 25" fill="none" xmlns="http://www.w3.org/2000/svg">
<path d="M13.125 12.0912C13.125 12.3137 13.059 12.5312 12.9354 12.7162C12.8118 12.9012 12.6361 13.0454 12.4305 13.1306C12.225 13.2157 11.9988 13.238 11.7805 13.1946C11.5623 13.1512 11.3618 13.044 11.2045 12.8867C11.0472 12.7293 10.94 12.5289 10.8966 12.3107C10.8532 12.0924 10.8755 11.8662 10.9606 11.6607C11.0458 11.4551 11.19 11.2794 11.375 11.1558C11.56 11.0322 11.7775 10.9662 12 10.9662C12.2984 10.9662 12.5845 11.0847 12.7955 11.2957C13.0065 11.5067 13.125 11.7928 13.125 12.0912ZM12 6.84119C12.2225 6.84119 12.44 6.77521 12.625 6.65159C12.81 6.52797 12.9542 6.35227 13.0394 6.14671C13.1245 5.94114 13.1468 5.71494 13.1034 5.49671C13.06 5.27848 12.9528 5.07803 12.7955 4.92069C12.6382 4.76336 12.4377 4.65621 12.2195 4.6128C12.0012 4.5694 11.775 4.59167 11.5695 4.67682C11.3639 4.76197 11.1882 4.90617 11.0646 5.09117C10.941 5.27618 10.875 5.49368 10.875 5.71619C10.875 6.01456 10.9935 6.3007 11.2045 6.51168C11.4155 6.72266 11.7016 6.84119 12 6.84119ZM12 17.3412C11.7775 17.3412 11.56 17.4072 11.375 17.5308C11.19 17.6544 11.0458 17.8301 10.9606 18.0357C10.8755 18.2412 10.8532 18.4674 10.8966 18.6857C10.94 18.9039 11.0472 19.1043 11.2045 19.2617C11.3618 19.419 11.5623 19.5262 11.7805 19.5696C11.9988 19.613 12.225 19.5907 12.4305 19.5056C12.6361 19.4204 12.8118 19.2762 12.9354 19.0912C13.059 18.9062 13.125 18.6887 13.125 18.4662C13.125 18.1678 13.0065 17.8817 12.7955 17.6707C12.5845 17.4597 12.2984 17.3412 12 17.3412Z" fill="#B8B9BD"/>
</svg>
