<svg width="20" height="20" viewBox="0 0 20 20" fill="none" xmlns="http://www.w3.org/2000/svg">
<path d="M13.4917 1.66663H6.50841C3.47508 1.66663 1.66675 3.47496 1.66675 6.50829V13.4833C1.66675 16.525 3.47508 18.3333 6.50841 18.3333H13.4834C16.5167 18.3333 18.3251 16.525 18.3251 13.4916V6.50829C18.3334 3.47496 16.5251 1.66663 13.4917 1.66663ZM14.3834 8.29996L12.4584 10.7833C12.2167 11.0916 11.8751 11.2916 11.4834 11.3333C11.0917 11.3833 10.7084 11.275 10.4001 11.0333L8.87508 9.83329C8.81675 9.78329 8.75008 9.78329 8.71675 9.79163C8.68341 9.79163 8.62508 9.80829 8.57508 9.87496L6.59175 12.45C6.46675 12.6083 6.28341 12.6916 6.10008 12.6916C5.96675 12.6916 5.83341 12.65 5.71675 12.5583C5.44175 12.35 5.39175 11.9583 5.60008 11.6833L7.58341 9.10829C7.82508 8.79996 8.16675 8.59996 8.55841 8.54996C8.94175 8.49996 9.33341 8.60829 9.64175 8.84996L11.1667 10.05C11.2251 10.1 11.2834 10.1 11.3251 10.0916C11.3584 10.0916 11.4167 10.075 11.4667 10.0083L13.3917 7.52496C13.6001 7.24996 14.0001 7.19996 14.2667 7.41663C14.5417 7.64163 14.5917 8.03329 14.3834 8.29996Z" fill="#929EAE"/>
</svg>
